<mxfile host="Electron" modified="2025-05-20T21:36:22.881Z" agent="Mozilla/5.0 (Windows NT 10.0; Win64; x64) AppleWebKit/537.36 (KHTML, like Gecko) draw.io/21.2.1 Chrome/112.0.5615.87 Electron/24.1.2 Safari/537.36" etag="2CcsqsKG4lPPkeSUFhhx" version="21.2.1" type="device">
  <diagram name="Страница 1" id="5SH2qSlsvQcftMbVPagf">
    <mxGraphModel dx="2037" dy="830" grid="1" gridSize="10" guides="1" tooltips="1" connect="1" arrows="1" fold="1" page="1" pageScale="1" pageWidth="827" pageHeight="1169" math="0" shadow="0">
      <root>
        <mxCell id="0" />
        <mxCell id="1" parent="0" />
        <mxCell id="VSTp_4rP8tjsOcfSHApI-1" value="" style="rounded=0;whiteSpace=wrap;html=1;" vertex="1" parent="1">
          <mxGeometry x="60" y="260" width="580" height="640" as="geometry" />
        </mxCell>
        <mxCell id="VSTp_4rP8tjsOcfSHApI-2" value="" style="rounded=0;whiteSpace=wrap;html=1;" vertex="1" parent="1">
          <mxGeometry x="60" y="260" width="580" height="30" as="geometry" />
        </mxCell>
        <mxCell id="VSTp_4rP8tjsOcfSHApI-3" value="Fun_Of_The_Gods" style="text;html=1;strokeColor=none;fillColor=none;align=center;verticalAlign=middle;whiteSpace=wrap;rounded=0;" vertex="1" parent="1">
          <mxGeometry x="100" y="260" width="60" height="30" as="geometry" />
        </mxCell>
        <mxCell id="VSTp_4rP8tjsOcfSHApI-4" value="" style="verticalLabelPosition=bottom;verticalAlign=top;html=1;shape=mxgraph.basic.x" vertex="1" parent="1">
          <mxGeometry x="610" y="265" width="20" height="20" as="geometry" />
        </mxCell>
        <mxCell id="VSTp_4rP8tjsOcfSHApI-55" value="" style="rounded=0;whiteSpace=wrap;html=1;" vertex="1" parent="1">
          <mxGeometry x="90" y="300" width="20" height="20" as="geometry" />
        </mxCell>
        <mxCell id="VSTp_4rP8tjsOcfSHApI-56" value="" style="rounded=0;whiteSpace=wrap;html=1;" vertex="1" parent="1">
          <mxGeometry x="70" y="300" width="20" height="20" as="geometry" />
        </mxCell>
        <mxCell id="VSTp_4rP8tjsOcfSHApI-57" value="" style="rounded=0;whiteSpace=wrap;html=1;" vertex="1" parent="1">
          <mxGeometry x="130" y="300" width="20" height="20" as="geometry" />
        </mxCell>
        <mxCell id="VSTp_4rP8tjsOcfSHApI-58" value="" style="rounded=0;whiteSpace=wrap;html=1;" vertex="1" parent="1">
          <mxGeometry x="110" y="300" width="20" height="20" as="geometry" />
        </mxCell>
        <mxCell id="VSTp_4rP8tjsOcfSHApI-59" value="" style="rounded=0;whiteSpace=wrap;html=1;" vertex="1" parent="1">
          <mxGeometry x="170" y="300" width="20" height="20" as="geometry" />
        </mxCell>
        <mxCell id="VSTp_4rP8tjsOcfSHApI-60" value="" style="rounded=0;whiteSpace=wrap;html=1;" vertex="1" parent="1">
          <mxGeometry x="150" y="300" width="20" height="20" as="geometry" />
        </mxCell>
        <mxCell id="VSTp_4rP8tjsOcfSHApI-61" value="" style="rounded=0;whiteSpace=wrap;html=1;" vertex="1" parent="1">
          <mxGeometry x="210" y="300" width="20" height="20" as="geometry" />
        </mxCell>
        <mxCell id="VSTp_4rP8tjsOcfSHApI-62" value="" style="rounded=0;whiteSpace=wrap;html=1;" vertex="1" parent="1">
          <mxGeometry x="190" y="300" width="20" height="20" as="geometry" />
        </mxCell>
        <mxCell id="VSTp_4rP8tjsOcfSHApI-63" value="" style="rounded=0;whiteSpace=wrap;html=1;" vertex="1" parent="1">
          <mxGeometry x="250" y="300" width="20" height="20" as="geometry" />
        </mxCell>
        <mxCell id="VSTp_4rP8tjsOcfSHApI-64" value="" style="rounded=0;whiteSpace=wrap;html=1;" vertex="1" parent="1">
          <mxGeometry x="230" y="300" width="20" height="20" as="geometry" />
        </mxCell>
        <mxCell id="VSTp_4rP8tjsOcfSHApI-65" value="" style="rounded=0;whiteSpace=wrap;html=1;" vertex="1" parent="1">
          <mxGeometry x="290" y="300" width="20" height="20" as="geometry" />
        </mxCell>
        <mxCell id="VSTp_4rP8tjsOcfSHApI-66" value="" style="rounded=0;whiteSpace=wrap;html=1;" vertex="1" parent="1">
          <mxGeometry x="270" y="300" width="20" height="20" as="geometry" />
        </mxCell>
        <mxCell id="VSTp_4rP8tjsOcfSHApI-67" value="" style="rounded=0;whiteSpace=wrap;html=1;" vertex="1" parent="1">
          <mxGeometry x="330" y="300" width="20" height="20" as="geometry" />
        </mxCell>
        <mxCell id="VSTp_4rP8tjsOcfSHApI-68" value="" style="rounded=0;whiteSpace=wrap;html=1;" vertex="1" parent="1">
          <mxGeometry x="310" y="300" width="20" height="20" as="geometry" />
        </mxCell>
        <mxCell id="VSTp_4rP8tjsOcfSHApI-69" value="" style="rounded=0;whiteSpace=wrap;html=1;" vertex="1" parent="1">
          <mxGeometry x="370" y="300" width="20" height="20" as="geometry" />
        </mxCell>
        <mxCell id="VSTp_4rP8tjsOcfSHApI-70" value="" style="rounded=0;whiteSpace=wrap;html=1;" vertex="1" parent="1">
          <mxGeometry x="350" y="300" width="20" height="20" as="geometry" />
        </mxCell>
        <mxCell id="VSTp_4rP8tjsOcfSHApI-71" value="" style="rounded=0;whiteSpace=wrap;html=1;" vertex="1" parent="1">
          <mxGeometry x="410" y="300" width="20" height="20" as="geometry" />
        </mxCell>
        <mxCell id="VSTp_4rP8tjsOcfSHApI-72" value="" style="rounded=0;whiteSpace=wrap;html=1;" vertex="1" parent="1">
          <mxGeometry x="390" y="300" width="20" height="20" as="geometry" />
        </mxCell>
        <mxCell id="VSTp_4rP8tjsOcfSHApI-73" value="" style="rounded=0;whiteSpace=wrap;html=1;" vertex="1" parent="1">
          <mxGeometry x="450" y="300" width="20" height="20" as="geometry" />
        </mxCell>
        <mxCell id="VSTp_4rP8tjsOcfSHApI-74" value="" style="rounded=0;whiteSpace=wrap;html=1;" vertex="1" parent="1">
          <mxGeometry x="430" y="300" width="20" height="20" as="geometry" />
        </mxCell>
        <mxCell id="VSTp_4rP8tjsOcfSHApI-75" value="" style="rounded=0;whiteSpace=wrap;html=1;" vertex="1" parent="1">
          <mxGeometry x="490" y="300" width="20" height="20" as="geometry" />
        </mxCell>
        <mxCell id="VSTp_4rP8tjsOcfSHApI-76" value="" style="rounded=0;whiteSpace=wrap;html=1;" vertex="1" parent="1">
          <mxGeometry x="470" y="300" width="20" height="20" as="geometry" />
        </mxCell>
        <mxCell id="VSTp_4rP8tjsOcfSHApI-77" value="" style="rounded=0;whiteSpace=wrap;html=1;" vertex="1" parent="1">
          <mxGeometry x="530" y="300" width="20" height="20" as="geometry" />
        </mxCell>
        <mxCell id="VSTp_4rP8tjsOcfSHApI-78" value="" style="rounded=0;whiteSpace=wrap;html=1;" vertex="1" parent="1">
          <mxGeometry x="510" y="300" width="20" height="20" as="geometry" />
        </mxCell>
        <mxCell id="VSTp_4rP8tjsOcfSHApI-79" value="" style="rounded=0;whiteSpace=wrap;html=1;" vertex="1" parent="1">
          <mxGeometry x="570" y="300" width="20" height="20" as="geometry" />
        </mxCell>
        <mxCell id="VSTp_4rP8tjsOcfSHApI-80" value="" style="rounded=0;whiteSpace=wrap;html=1;" vertex="1" parent="1">
          <mxGeometry x="550" y="300" width="20" height="20" as="geometry" />
        </mxCell>
        <mxCell id="VSTp_4rP8tjsOcfSHApI-81" value="" style="rounded=0;whiteSpace=wrap;html=1;" vertex="1" parent="1">
          <mxGeometry x="610" y="300" width="20" height="20" as="geometry" />
        </mxCell>
        <mxCell id="VSTp_4rP8tjsOcfSHApI-82" value="" style="rounded=0;whiteSpace=wrap;html=1;" vertex="1" parent="1">
          <mxGeometry x="590" y="300" width="20" height="20" as="geometry" />
        </mxCell>
        <mxCell id="VSTp_4rP8tjsOcfSHApI-119" value="" style="rounded=0;whiteSpace=wrap;html=1;" vertex="1" parent="1">
          <mxGeometry x="90" y="320" width="20" height="20" as="geometry" />
        </mxCell>
        <mxCell id="VSTp_4rP8tjsOcfSHApI-120" value="" style="rounded=0;whiteSpace=wrap;html=1;" vertex="1" parent="1">
          <mxGeometry x="70" y="320" width="20" height="20" as="geometry" />
        </mxCell>
        <mxCell id="VSTp_4rP8tjsOcfSHApI-121" value="" style="rounded=0;whiteSpace=wrap;html=1;" vertex="1" parent="1">
          <mxGeometry x="130" y="320" width="20" height="20" as="geometry" />
        </mxCell>
        <mxCell id="VSTp_4rP8tjsOcfSHApI-122" value="" style="rounded=0;whiteSpace=wrap;html=1;" vertex="1" parent="1">
          <mxGeometry x="110" y="320" width="20" height="20" as="geometry" />
        </mxCell>
        <mxCell id="VSTp_4rP8tjsOcfSHApI-123" value="" style="rounded=0;whiteSpace=wrap;html=1;" vertex="1" parent="1">
          <mxGeometry x="170" y="320" width="20" height="20" as="geometry" />
        </mxCell>
        <mxCell id="VSTp_4rP8tjsOcfSHApI-124" value="" style="rounded=0;whiteSpace=wrap;html=1;" vertex="1" parent="1">
          <mxGeometry x="150" y="320" width="20" height="20" as="geometry" />
        </mxCell>
        <mxCell id="VSTp_4rP8tjsOcfSHApI-125" value="" style="rounded=0;whiteSpace=wrap;html=1;" vertex="1" parent="1">
          <mxGeometry x="210" y="320" width="20" height="20" as="geometry" />
        </mxCell>
        <mxCell id="VSTp_4rP8tjsOcfSHApI-126" value="" style="rounded=0;whiteSpace=wrap;html=1;" vertex="1" parent="1">
          <mxGeometry x="190" y="320" width="20" height="20" as="geometry" />
        </mxCell>
        <mxCell id="VSTp_4rP8tjsOcfSHApI-127" value="" style="rounded=0;whiteSpace=wrap;html=1;" vertex="1" parent="1">
          <mxGeometry x="250" y="320" width="20" height="20" as="geometry" />
        </mxCell>
        <mxCell id="VSTp_4rP8tjsOcfSHApI-128" value="" style="rounded=0;whiteSpace=wrap;html=1;" vertex="1" parent="1">
          <mxGeometry x="230" y="320" width="20" height="20" as="geometry" />
        </mxCell>
        <mxCell id="VSTp_4rP8tjsOcfSHApI-129" value="" style="rounded=0;whiteSpace=wrap;html=1;" vertex="1" parent="1">
          <mxGeometry x="290" y="320" width="20" height="20" as="geometry" />
        </mxCell>
        <mxCell id="VSTp_4rP8tjsOcfSHApI-130" value="" style="rounded=0;whiteSpace=wrap;html=1;" vertex="1" parent="1">
          <mxGeometry x="270" y="320" width="20" height="20" as="geometry" />
        </mxCell>
        <mxCell id="VSTp_4rP8tjsOcfSHApI-131" value="" style="rounded=0;whiteSpace=wrap;html=1;" vertex="1" parent="1">
          <mxGeometry x="330" y="320" width="20" height="20" as="geometry" />
        </mxCell>
        <mxCell id="VSTp_4rP8tjsOcfSHApI-132" value="" style="rounded=0;whiteSpace=wrap;html=1;" vertex="1" parent="1">
          <mxGeometry x="310" y="320" width="20" height="20" as="geometry" />
        </mxCell>
        <mxCell id="VSTp_4rP8tjsOcfSHApI-133" value="" style="rounded=0;whiteSpace=wrap;html=1;" vertex="1" parent="1">
          <mxGeometry x="370" y="320" width="20" height="20" as="geometry" />
        </mxCell>
        <mxCell id="VSTp_4rP8tjsOcfSHApI-134" value="" style="rounded=0;whiteSpace=wrap;html=1;" vertex="1" parent="1">
          <mxGeometry x="350" y="320" width="20" height="20" as="geometry" />
        </mxCell>
        <mxCell id="VSTp_4rP8tjsOcfSHApI-135" value="" style="rounded=0;whiteSpace=wrap;html=1;" vertex="1" parent="1">
          <mxGeometry x="410" y="320" width="20" height="20" as="geometry" />
        </mxCell>
        <mxCell id="VSTp_4rP8tjsOcfSHApI-136" value="" style="rounded=0;whiteSpace=wrap;html=1;" vertex="1" parent="1">
          <mxGeometry x="390" y="320" width="20" height="20" as="geometry" />
        </mxCell>
        <mxCell id="VSTp_4rP8tjsOcfSHApI-137" value="" style="rounded=0;whiteSpace=wrap;html=1;" vertex="1" parent="1">
          <mxGeometry x="450" y="320" width="20" height="20" as="geometry" />
        </mxCell>
        <mxCell id="VSTp_4rP8tjsOcfSHApI-138" value="" style="rounded=0;whiteSpace=wrap;html=1;" vertex="1" parent="1">
          <mxGeometry x="430" y="320" width="20" height="20" as="geometry" />
        </mxCell>
        <mxCell id="VSTp_4rP8tjsOcfSHApI-139" value="" style="rounded=0;whiteSpace=wrap;html=1;" vertex="1" parent="1">
          <mxGeometry x="490" y="320" width="20" height="20" as="geometry" />
        </mxCell>
        <mxCell id="VSTp_4rP8tjsOcfSHApI-140" value="" style="rounded=0;whiteSpace=wrap;html=1;" vertex="1" parent="1">
          <mxGeometry x="470" y="320" width="20" height="20" as="geometry" />
        </mxCell>
        <mxCell id="VSTp_4rP8tjsOcfSHApI-141" value="" style="rounded=0;whiteSpace=wrap;html=1;" vertex="1" parent="1">
          <mxGeometry x="530" y="320" width="20" height="20" as="geometry" />
        </mxCell>
        <mxCell id="VSTp_4rP8tjsOcfSHApI-142" value="" style="rounded=0;whiteSpace=wrap;html=1;" vertex="1" parent="1">
          <mxGeometry x="510" y="320" width="20" height="20" as="geometry" />
        </mxCell>
        <mxCell id="VSTp_4rP8tjsOcfSHApI-143" value="" style="rounded=0;whiteSpace=wrap;html=1;" vertex="1" parent="1">
          <mxGeometry x="570" y="320" width="20" height="20" as="geometry" />
        </mxCell>
        <mxCell id="VSTp_4rP8tjsOcfSHApI-144" value="" style="rounded=0;whiteSpace=wrap;html=1;" vertex="1" parent="1">
          <mxGeometry x="550" y="320" width="20" height="20" as="geometry" />
        </mxCell>
        <mxCell id="VSTp_4rP8tjsOcfSHApI-145" value="" style="rounded=0;whiteSpace=wrap;html=1;" vertex="1" parent="1">
          <mxGeometry x="610" y="320" width="20" height="20" as="geometry" />
        </mxCell>
        <mxCell id="VSTp_4rP8tjsOcfSHApI-146" value="" style="rounded=0;whiteSpace=wrap;html=1;" vertex="1" parent="1">
          <mxGeometry x="590" y="320" width="20" height="20" as="geometry" />
        </mxCell>
        <mxCell id="VSTp_4rP8tjsOcfSHApI-175" value="" style="rounded=0;whiteSpace=wrap;html=1;" vertex="1" parent="1">
          <mxGeometry x="90" y="340" width="20" height="20" as="geometry" />
        </mxCell>
        <mxCell id="VSTp_4rP8tjsOcfSHApI-176" value="" style="rounded=0;whiteSpace=wrap;html=1;" vertex="1" parent="1">
          <mxGeometry x="70" y="340" width="20" height="20" as="geometry" />
        </mxCell>
        <mxCell id="VSTp_4rP8tjsOcfSHApI-177" value="" style="rounded=0;whiteSpace=wrap;html=1;" vertex="1" parent="1">
          <mxGeometry x="130" y="340" width="20" height="20" as="geometry" />
        </mxCell>
        <mxCell id="VSTp_4rP8tjsOcfSHApI-178" value="" style="rounded=0;whiteSpace=wrap;html=1;" vertex="1" parent="1">
          <mxGeometry x="110" y="340" width="20" height="20" as="geometry" />
        </mxCell>
        <mxCell id="VSTp_4rP8tjsOcfSHApI-179" value="" style="rounded=0;whiteSpace=wrap;html=1;" vertex="1" parent="1">
          <mxGeometry x="170" y="340" width="20" height="20" as="geometry" />
        </mxCell>
        <mxCell id="VSTp_4rP8tjsOcfSHApI-180" value="" style="rounded=0;whiteSpace=wrap;html=1;" vertex="1" parent="1">
          <mxGeometry x="150" y="340" width="20" height="20" as="geometry" />
        </mxCell>
        <mxCell id="VSTp_4rP8tjsOcfSHApI-181" value="" style="rounded=0;whiteSpace=wrap;html=1;" vertex="1" parent="1">
          <mxGeometry x="210" y="340" width="20" height="20" as="geometry" />
        </mxCell>
        <mxCell id="VSTp_4rP8tjsOcfSHApI-182" value="" style="rounded=0;whiteSpace=wrap;html=1;" vertex="1" parent="1">
          <mxGeometry x="190" y="340" width="20" height="20" as="geometry" />
        </mxCell>
        <mxCell id="VSTp_4rP8tjsOcfSHApI-183" value="" style="rounded=0;whiteSpace=wrap;html=1;" vertex="1" parent="1">
          <mxGeometry x="250" y="340" width="20" height="20" as="geometry" />
        </mxCell>
        <mxCell id="VSTp_4rP8tjsOcfSHApI-184" value="" style="rounded=0;whiteSpace=wrap;html=1;" vertex="1" parent="1">
          <mxGeometry x="230" y="340" width="20" height="20" as="geometry" />
        </mxCell>
        <mxCell id="VSTp_4rP8tjsOcfSHApI-185" value="" style="rounded=0;whiteSpace=wrap;html=1;" vertex="1" parent="1">
          <mxGeometry x="290" y="340" width="20" height="20" as="geometry" />
        </mxCell>
        <mxCell id="VSTp_4rP8tjsOcfSHApI-186" value="" style="rounded=0;whiteSpace=wrap;html=1;" vertex="1" parent="1">
          <mxGeometry x="270" y="340" width="20" height="20" as="geometry" />
        </mxCell>
        <mxCell id="VSTp_4rP8tjsOcfSHApI-187" value="" style="rounded=0;whiteSpace=wrap;html=1;" vertex="1" parent="1">
          <mxGeometry x="330" y="340" width="20" height="20" as="geometry" />
        </mxCell>
        <mxCell id="VSTp_4rP8tjsOcfSHApI-188" value="" style="rounded=0;whiteSpace=wrap;html=1;" vertex="1" parent="1">
          <mxGeometry x="310" y="340" width="20" height="20" as="geometry" />
        </mxCell>
        <mxCell id="VSTp_4rP8tjsOcfSHApI-189" value="" style="rounded=0;whiteSpace=wrap;html=1;" vertex="1" parent="1">
          <mxGeometry x="370" y="340" width="20" height="20" as="geometry" />
        </mxCell>
        <mxCell id="VSTp_4rP8tjsOcfSHApI-190" value="" style="rounded=0;whiteSpace=wrap;html=1;" vertex="1" parent="1">
          <mxGeometry x="350" y="340" width="20" height="20" as="geometry" />
        </mxCell>
        <mxCell id="VSTp_4rP8tjsOcfSHApI-191" value="" style="rounded=0;whiteSpace=wrap;html=1;" vertex="1" parent="1">
          <mxGeometry x="410" y="340" width="20" height="20" as="geometry" />
        </mxCell>
        <mxCell id="VSTp_4rP8tjsOcfSHApI-192" value="" style="rounded=0;whiteSpace=wrap;html=1;" vertex="1" parent="1">
          <mxGeometry x="390" y="340" width="20" height="20" as="geometry" />
        </mxCell>
        <mxCell id="VSTp_4rP8tjsOcfSHApI-193" value="" style="rounded=0;whiteSpace=wrap;html=1;" vertex="1" parent="1">
          <mxGeometry x="450" y="340" width="20" height="20" as="geometry" />
        </mxCell>
        <mxCell id="VSTp_4rP8tjsOcfSHApI-194" value="" style="rounded=0;whiteSpace=wrap;html=1;" vertex="1" parent="1">
          <mxGeometry x="430" y="340" width="20" height="20" as="geometry" />
        </mxCell>
        <mxCell id="VSTp_4rP8tjsOcfSHApI-195" value="" style="rounded=0;whiteSpace=wrap;html=1;" vertex="1" parent="1">
          <mxGeometry x="490" y="340" width="20" height="20" as="geometry" />
        </mxCell>
        <mxCell id="VSTp_4rP8tjsOcfSHApI-196" value="" style="rounded=0;whiteSpace=wrap;html=1;" vertex="1" parent="1">
          <mxGeometry x="470" y="340" width="20" height="20" as="geometry" />
        </mxCell>
        <mxCell id="VSTp_4rP8tjsOcfSHApI-197" value="" style="rounded=0;whiteSpace=wrap;html=1;" vertex="1" parent="1">
          <mxGeometry x="530" y="340" width="20" height="20" as="geometry" />
        </mxCell>
        <mxCell id="VSTp_4rP8tjsOcfSHApI-198" value="" style="rounded=0;whiteSpace=wrap;html=1;" vertex="1" parent="1">
          <mxGeometry x="510" y="340" width="20" height="20" as="geometry" />
        </mxCell>
        <mxCell id="VSTp_4rP8tjsOcfSHApI-199" value="" style="rounded=0;whiteSpace=wrap;html=1;" vertex="1" parent="1">
          <mxGeometry x="570" y="340" width="20" height="20" as="geometry" />
        </mxCell>
        <mxCell id="VSTp_4rP8tjsOcfSHApI-200" value="" style="rounded=0;whiteSpace=wrap;html=1;" vertex="1" parent="1">
          <mxGeometry x="550" y="340" width="20" height="20" as="geometry" />
        </mxCell>
        <mxCell id="VSTp_4rP8tjsOcfSHApI-201" value="" style="rounded=0;whiteSpace=wrap;html=1;" vertex="1" parent="1">
          <mxGeometry x="610" y="340" width="20" height="20" as="geometry" />
        </mxCell>
        <mxCell id="VSTp_4rP8tjsOcfSHApI-202" value="" style="rounded=0;whiteSpace=wrap;html=1;" vertex="1" parent="1">
          <mxGeometry x="590" y="340" width="20" height="20" as="geometry" />
        </mxCell>
        <mxCell id="VSTp_4rP8tjsOcfSHApI-203" value="" style="rounded=0;whiteSpace=wrap;html=1;" vertex="1" parent="1">
          <mxGeometry x="90" y="360" width="20" height="20" as="geometry" />
        </mxCell>
        <mxCell id="VSTp_4rP8tjsOcfSHApI-204" value="" style="rounded=0;whiteSpace=wrap;html=1;" vertex="1" parent="1">
          <mxGeometry x="70" y="360" width="20" height="20" as="geometry" />
        </mxCell>
        <mxCell id="VSTp_4rP8tjsOcfSHApI-205" value="" style="rounded=0;whiteSpace=wrap;html=1;" vertex="1" parent="1">
          <mxGeometry x="130" y="360" width="20" height="20" as="geometry" />
        </mxCell>
        <mxCell id="VSTp_4rP8tjsOcfSHApI-206" value="" style="rounded=0;whiteSpace=wrap;html=1;" vertex="1" parent="1">
          <mxGeometry x="110" y="360" width="20" height="20" as="geometry" />
        </mxCell>
        <mxCell id="VSTp_4rP8tjsOcfSHApI-207" value="" style="rounded=0;whiteSpace=wrap;html=1;" vertex="1" parent="1">
          <mxGeometry x="170" y="360" width="20" height="20" as="geometry" />
        </mxCell>
        <mxCell id="VSTp_4rP8tjsOcfSHApI-208" value="" style="rounded=0;whiteSpace=wrap;html=1;" vertex="1" parent="1">
          <mxGeometry x="150" y="360" width="20" height="20" as="geometry" />
        </mxCell>
        <mxCell id="VSTp_4rP8tjsOcfSHApI-209" value="" style="rounded=0;whiteSpace=wrap;html=1;" vertex="1" parent="1">
          <mxGeometry x="210" y="360" width="20" height="20" as="geometry" />
        </mxCell>
        <mxCell id="VSTp_4rP8tjsOcfSHApI-210" value="" style="rounded=0;whiteSpace=wrap;html=1;" vertex="1" parent="1">
          <mxGeometry x="190" y="360" width="20" height="20" as="geometry" />
        </mxCell>
        <mxCell id="VSTp_4rP8tjsOcfSHApI-211" value="" style="rounded=0;whiteSpace=wrap;html=1;" vertex="1" parent="1">
          <mxGeometry x="250" y="360" width="20" height="20" as="geometry" />
        </mxCell>
        <mxCell id="VSTp_4rP8tjsOcfSHApI-212" value="" style="rounded=0;whiteSpace=wrap;html=1;" vertex="1" parent="1">
          <mxGeometry x="230" y="360" width="20" height="20" as="geometry" />
        </mxCell>
        <mxCell id="VSTp_4rP8tjsOcfSHApI-213" value="" style="rounded=0;whiteSpace=wrap;html=1;" vertex="1" parent="1">
          <mxGeometry x="290" y="360" width="20" height="20" as="geometry" />
        </mxCell>
        <mxCell id="VSTp_4rP8tjsOcfSHApI-214" value="" style="rounded=0;whiteSpace=wrap;html=1;" vertex="1" parent="1">
          <mxGeometry x="270" y="360" width="20" height="20" as="geometry" />
        </mxCell>
        <mxCell id="VSTp_4rP8tjsOcfSHApI-215" value="" style="rounded=0;whiteSpace=wrap;html=1;" vertex="1" parent="1">
          <mxGeometry x="330" y="360" width="20" height="20" as="geometry" />
        </mxCell>
        <mxCell id="VSTp_4rP8tjsOcfSHApI-216" value="" style="rounded=0;whiteSpace=wrap;html=1;" vertex="1" parent="1">
          <mxGeometry x="310" y="360" width="20" height="20" as="geometry" />
        </mxCell>
        <mxCell id="VSTp_4rP8tjsOcfSHApI-217" value="" style="rounded=0;whiteSpace=wrap;html=1;" vertex="1" parent="1">
          <mxGeometry x="370" y="360" width="20" height="20" as="geometry" />
        </mxCell>
        <mxCell id="VSTp_4rP8tjsOcfSHApI-218" value="" style="rounded=0;whiteSpace=wrap;html=1;" vertex="1" parent="1">
          <mxGeometry x="350" y="360" width="20" height="20" as="geometry" />
        </mxCell>
        <mxCell id="VSTp_4rP8tjsOcfSHApI-219" value="" style="rounded=0;whiteSpace=wrap;html=1;" vertex="1" parent="1">
          <mxGeometry x="410" y="360" width="20" height="20" as="geometry" />
        </mxCell>
        <mxCell id="VSTp_4rP8tjsOcfSHApI-220" value="" style="rounded=0;whiteSpace=wrap;html=1;" vertex="1" parent="1">
          <mxGeometry x="390" y="360" width="20" height="20" as="geometry" />
        </mxCell>
        <mxCell id="VSTp_4rP8tjsOcfSHApI-221" value="" style="rounded=0;whiteSpace=wrap;html=1;" vertex="1" parent="1">
          <mxGeometry x="450" y="360" width="20" height="20" as="geometry" />
        </mxCell>
        <mxCell id="VSTp_4rP8tjsOcfSHApI-222" value="" style="rounded=0;whiteSpace=wrap;html=1;" vertex="1" parent="1">
          <mxGeometry x="430" y="360" width="20" height="20" as="geometry" />
        </mxCell>
        <mxCell id="VSTp_4rP8tjsOcfSHApI-223" value="" style="rounded=0;whiteSpace=wrap;html=1;" vertex="1" parent="1">
          <mxGeometry x="490" y="360" width="20" height="20" as="geometry" />
        </mxCell>
        <mxCell id="VSTp_4rP8tjsOcfSHApI-224" value="" style="rounded=0;whiteSpace=wrap;html=1;" vertex="1" parent="1">
          <mxGeometry x="470" y="360" width="20" height="20" as="geometry" />
        </mxCell>
        <mxCell id="VSTp_4rP8tjsOcfSHApI-225" value="" style="rounded=0;whiteSpace=wrap;html=1;" vertex="1" parent="1">
          <mxGeometry x="530" y="360" width="20" height="20" as="geometry" />
        </mxCell>
        <mxCell id="VSTp_4rP8tjsOcfSHApI-226" value="" style="rounded=0;whiteSpace=wrap;html=1;" vertex="1" parent="1">
          <mxGeometry x="510" y="360" width="20" height="20" as="geometry" />
        </mxCell>
        <mxCell id="VSTp_4rP8tjsOcfSHApI-227" value="" style="rounded=0;whiteSpace=wrap;html=1;" vertex="1" parent="1">
          <mxGeometry x="570" y="360" width="20" height="20" as="geometry" />
        </mxCell>
        <mxCell id="VSTp_4rP8tjsOcfSHApI-228" value="" style="rounded=0;whiteSpace=wrap;html=1;" vertex="1" parent="1">
          <mxGeometry x="550" y="360" width="20" height="20" as="geometry" />
        </mxCell>
        <mxCell id="VSTp_4rP8tjsOcfSHApI-229" value="" style="rounded=0;whiteSpace=wrap;html=1;" vertex="1" parent="1">
          <mxGeometry x="610" y="360" width="20" height="20" as="geometry" />
        </mxCell>
        <mxCell id="VSTp_4rP8tjsOcfSHApI-230" value="" style="rounded=0;whiteSpace=wrap;html=1;" vertex="1" parent="1">
          <mxGeometry x="590" y="360" width="20" height="20" as="geometry" />
        </mxCell>
        <mxCell id="VSTp_4rP8tjsOcfSHApI-231" value="" style="rounded=0;whiteSpace=wrap;html=1;" vertex="1" parent="1">
          <mxGeometry x="90" y="380" width="20" height="20" as="geometry" />
        </mxCell>
        <mxCell id="VSTp_4rP8tjsOcfSHApI-232" value="" style="rounded=0;whiteSpace=wrap;html=1;" vertex="1" parent="1">
          <mxGeometry x="70" y="380" width="20" height="20" as="geometry" />
        </mxCell>
        <mxCell id="VSTp_4rP8tjsOcfSHApI-233" value="" style="rounded=0;whiteSpace=wrap;html=1;" vertex="1" parent="1">
          <mxGeometry x="130" y="380" width="20" height="20" as="geometry" />
        </mxCell>
        <mxCell id="VSTp_4rP8tjsOcfSHApI-234" value="" style="rounded=0;whiteSpace=wrap;html=1;" vertex="1" parent="1">
          <mxGeometry x="110" y="380" width="20" height="20" as="geometry" />
        </mxCell>
        <mxCell id="VSTp_4rP8tjsOcfSHApI-235" value="" style="rounded=0;whiteSpace=wrap;html=1;" vertex="1" parent="1">
          <mxGeometry x="170" y="380" width="20" height="20" as="geometry" />
        </mxCell>
        <mxCell id="VSTp_4rP8tjsOcfSHApI-236" value="" style="rounded=0;whiteSpace=wrap;html=1;" vertex="1" parent="1">
          <mxGeometry x="150" y="380" width="20" height="20" as="geometry" />
        </mxCell>
        <mxCell id="VSTp_4rP8tjsOcfSHApI-237" value="" style="rounded=0;whiteSpace=wrap;html=1;" vertex="1" parent="1">
          <mxGeometry x="210" y="380" width="20" height="20" as="geometry" />
        </mxCell>
        <mxCell id="VSTp_4rP8tjsOcfSHApI-238" value="" style="rounded=0;whiteSpace=wrap;html=1;" vertex="1" parent="1">
          <mxGeometry x="190" y="380" width="20" height="20" as="geometry" />
        </mxCell>
        <mxCell id="VSTp_4rP8tjsOcfSHApI-239" value="" style="rounded=0;whiteSpace=wrap;html=1;" vertex="1" parent="1">
          <mxGeometry x="250" y="380" width="20" height="20" as="geometry" />
        </mxCell>
        <mxCell id="VSTp_4rP8tjsOcfSHApI-240" value="" style="rounded=0;whiteSpace=wrap;html=1;" vertex="1" parent="1">
          <mxGeometry x="230" y="380" width="20" height="20" as="geometry" />
        </mxCell>
        <mxCell id="VSTp_4rP8tjsOcfSHApI-241" value="" style="rounded=0;whiteSpace=wrap;html=1;" vertex="1" parent="1">
          <mxGeometry x="290" y="380" width="20" height="20" as="geometry" />
        </mxCell>
        <mxCell id="VSTp_4rP8tjsOcfSHApI-242" value="" style="rounded=0;whiteSpace=wrap;html=1;" vertex="1" parent="1">
          <mxGeometry x="270" y="380" width="20" height="20" as="geometry" />
        </mxCell>
        <mxCell id="VSTp_4rP8tjsOcfSHApI-243" value="" style="rounded=0;whiteSpace=wrap;html=1;" vertex="1" parent="1">
          <mxGeometry x="330" y="380" width="20" height="20" as="geometry" />
        </mxCell>
        <mxCell id="VSTp_4rP8tjsOcfSHApI-244" value="" style="rounded=0;whiteSpace=wrap;html=1;" vertex="1" parent="1">
          <mxGeometry x="310" y="380" width="20" height="20" as="geometry" />
        </mxCell>
        <mxCell id="VSTp_4rP8tjsOcfSHApI-245" value="" style="rounded=0;whiteSpace=wrap;html=1;" vertex="1" parent="1">
          <mxGeometry x="370" y="380" width="20" height="20" as="geometry" />
        </mxCell>
        <mxCell id="VSTp_4rP8tjsOcfSHApI-246" value="" style="rounded=0;whiteSpace=wrap;html=1;" vertex="1" parent="1">
          <mxGeometry x="350" y="380" width="20" height="20" as="geometry" />
        </mxCell>
        <mxCell id="VSTp_4rP8tjsOcfSHApI-247" value="" style="rounded=0;whiteSpace=wrap;html=1;" vertex="1" parent="1">
          <mxGeometry x="410" y="380" width="20" height="20" as="geometry" />
        </mxCell>
        <mxCell id="VSTp_4rP8tjsOcfSHApI-248" value="" style="rounded=0;whiteSpace=wrap;html=1;" vertex="1" parent="1">
          <mxGeometry x="390" y="380" width="20" height="20" as="geometry" />
        </mxCell>
        <mxCell id="VSTp_4rP8tjsOcfSHApI-249" value="" style="rounded=0;whiteSpace=wrap;html=1;" vertex="1" parent="1">
          <mxGeometry x="450" y="380" width="20" height="20" as="geometry" />
        </mxCell>
        <mxCell id="VSTp_4rP8tjsOcfSHApI-250" value="" style="rounded=0;whiteSpace=wrap;html=1;" vertex="1" parent="1">
          <mxGeometry x="430" y="380" width="20" height="20" as="geometry" />
        </mxCell>
        <mxCell id="VSTp_4rP8tjsOcfSHApI-251" value="" style="rounded=0;whiteSpace=wrap;html=1;" vertex="1" parent="1">
          <mxGeometry x="490" y="380" width="20" height="20" as="geometry" />
        </mxCell>
        <mxCell id="VSTp_4rP8tjsOcfSHApI-252" value="" style="rounded=0;whiteSpace=wrap;html=1;" vertex="1" parent="1">
          <mxGeometry x="470" y="380" width="20" height="20" as="geometry" />
        </mxCell>
        <mxCell id="VSTp_4rP8tjsOcfSHApI-253" value="" style="rounded=0;whiteSpace=wrap;html=1;" vertex="1" parent="1">
          <mxGeometry x="530" y="380" width="20" height="20" as="geometry" />
        </mxCell>
        <mxCell id="VSTp_4rP8tjsOcfSHApI-254" value="" style="rounded=0;whiteSpace=wrap;html=1;" vertex="1" parent="1">
          <mxGeometry x="510" y="380" width="20" height="20" as="geometry" />
        </mxCell>
        <mxCell id="VSTp_4rP8tjsOcfSHApI-255" value="" style="rounded=0;whiteSpace=wrap;html=1;" vertex="1" parent="1">
          <mxGeometry x="570" y="380" width="20" height="20" as="geometry" />
        </mxCell>
        <mxCell id="VSTp_4rP8tjsOcfSHApI-256" value="" style="rounded=0;whiteSpace=wrap;html=1;" vertex="1" parent="1">
          <mxGeometry x="550" y="380" width="20" height="20" as="geometry" />
        </mxCell>
        <mxCell id="VSTp_4rP8tjsOcfSHApI-257" value="" style="rounded=0;whiteSpace=wrap;html=1;" vertex="1" parent="1">
          <mxGeometry x="610" y="380" width="20" height="20" as="geometry" />
        </mxCell>
        <mxCell id="VSTp_4rP8tjsOcfSHApI-258" value="" style="rounded=0;whiteSpace=wrap;html=1;" vertex="1" parent="1">
          <mxGeometry x="590" y="380" width="20" height="20" as="geometry" />
        </mxCell>
        <mxCell id="VSTp_4rP8tjsOcfSHApI-259" value="" style="rounded=0;whiteSpace=wrap;html=1;" vertex="1" parent="1">
          <mxGeometry x="90" y="400" width="20" height="20" as="geometry" />
        </mxCell>
        <mxCell id="VSTp_4rP8tjsOcfSHApI-260" value="" style="rounded=0;whiteSpace=wrap;html=1;" vertex="1" parent="1">
          <mxGeometry x="70" y="400" width="20" height="20" as="geometry" />
        </mxCell>
        <mxCell id="VSTp_4rP8tjsOcfSHApI-261" value="" style="rounded=0;whiteSpace=wrap;html=1;" vertex="1" parent="1">
          <mxGeometry x="130" y="400" width="20" height="20" as="geometry" />
        </mxCell>
        <mxCell id="VSTp_4rP8tjsOcfSHApI-262" value="" style="rounded=0;whiteSpace=wrap;html=1;" vertex="1" parent="1">
          <mxGeometry x="110" y="400" width="20" height="20" as="geometry" />
        </mxCell>
        <mxCell id="VSTp_4rP8tjsOcfSHApI-263" value="" style="rounded=0;whiteSpace=wrap;html=1;" vertex="1" parent="1">
          <mxGeometry x="170" y="400" width="20" height="20" as="geometry" />
        </mxCell>
        <mxCell id="VSTp_4rP8tjsOcfSHApI-264" value="" style="rounded=0;whiteSpace=wrap;html=1;" vertex="1" parent="1">
          <mxGeometry x="150" y="400" width="20" height="20" as="geometry" />
        </mxCell>
        <mxCell id="VSTp_4rP8tjsOcfSHApI-265" value="" style="rounded=0;whiteSpace=wrap;html=1;" vertex="1" parent="1">
          <mxGeometry x="210" y="400" width="20" height="20" as="geometry" />
        </mxCell>
        <mxCell id="VSTp_4rP8tjsOcfSHApI-266" value="" style="rounded=0;whiteSpace=wrap;html=1;" vertex="1" parent="1">
          <mxGeometry x="190" y="400" width="20" height="20" as="geometry" />
        </mxCell>
        <mxCell id="VSTp_4rP8tjsOcfSHApI-267" value="" style="rounded=0;whiteSpace=wrap;html=1;" vertex="1" parent="1">
          <mxGeometry x="250" y="400" width="20" height="20" as="geometry" />
        </mxCell>
        <mxCell id="VSTp_4rP8tjsOcfSHApI-268" value="" style="rounded=0;whiteSpace=wrap;html=1;" vertex="1" parent="1">
          <mxGeometry x="230" y="400" width="20" height="20" as="geometry" />
        </mxCell>
        <mxCell id="VSTp_4rP8tjsOcfSHApI-269" value="" style="rounded=0;whiteSpace=wrap;html=1;" vertex="1" parent="1">
          <mxGeometry x="290" y="400" width="20" height="20" as="geometry" />
        </mxCell>
        <mxCell id="VSTp_4rP8tjsOcfSHApI-270" value="" style="rounded=0;whiteSpace=wrap;html=1;" vertex="1" parent="1">
          <mxGeometry x="270" y="400" width="20" height="20" as="geometry" />
        </mxCell>
        <mxCell id="VSTp_4rP8tjsOcfSHApI-271" value="" style="rounded=0;whiteSpace=wrap;html=1;" vertex="1" parent="1">
          <mxGeometry x="330" y="400" width="20" height="20" as="geometry" />
        </mxCell>
        <mxCell id="VSTp_4rP8tjsOcfSHApI-272" value="" style="rounded=0;whiteSpace=wrap;html=1;" vertex="1" parent="1">
          <mxGeometry x="310" y="400" width="20" height="20" as="geometry" />
        </mxCell>
        <mxCell id="VSTp_4rP8tjsOcfSHApI-273" value="" style="rounded=0;whiteSpace=wrap;html=1;" vertex="1" parent="1">
          <mxGeometry x="370" y="400" width="20" height="20" as="geometry" />
        </mxCell>
        <mxCell id="VSTp_4rP8tjsOcfSHApI-274" value="" style="rounded=0;whiteSpace=wrap;html=1;" vertex="1" parent="1">
          <mxGeometry x="350" y="400" width="20" height="20" as="geometry" />
        </mxCell>
        <mxCell id="VSTp_4rP8tjsOcfSHApI-275" value="" style="rounded=0;whiteSpace=wrap;html=1;" vertex="1" parent="1">
          <mxGeometry x="410" y="400" width="20" height="20" as="geometry" />
        </mxCell>
        <mxCell id="VSTp_4rP8tjsOcfSHApI-276" value="" style="rounded=0;whiteSpace=wrap;html=1;" vertex="1" parent="1">
          <mxGeometry x="390" y="400" width="20" height="20" as="geometry" />
        </mxCell>
        <mxCell id="VSTp_4rP8tjsOcfSHApI-277" value="" style="rounded=0;whiteSpace=wrap;html=1;" vertex="1" parent="1">
          <mxGeometry x="450" y="400" width="20" height="20" as="geometry" />
        </mxCell>
        <mxCell id="VSTp_4rP8tjsOcfSHApI-278" value="" style="rounded=0;whiteSpace=wrap;html=1;" vertex="1" parent="1">
          <mxGeometry x="430" y="400" width="20" height="20" as="geometry" />
        </mxCell>
        <mxCell id="VSTp_4rP8tjsOcfSHApI-279" value="" style="rounded=0;whiteSpace=wrap;html=1;" vertex="1" parent="1">
          <mxGeometry x="490" y="400" width="20" height="20" as="geometry" />
        </mxCell>
        <mxCell id="VSTp_4rP8tjsOcfSHApI-280" value="" style="rounded=0;whiteSpace=wrap;html=1;" vertex="1" parent="1">
          <mxGeometry x="470" y="400" width="20" height="20" as="geometry" />
        </mxCell>
        <mxCell id="VSTp_4rP8tjsOcfSHApI-281" value="" style="rounded=0;whiteSpace=wrap;html=1;" vertex="1" parent="1">
          <mxGeometry x="530" y="400" width="20" height="20" as="geometry" />
        </mxCell>
        <mxCell id="VSTp_4rP8tjsOcfSHApI-282" value="" style="rounded=0;whiteSpace=wrap;html=1;" vertex="1" parent="1">
          <mxGeometry x="510" y="400" width="20" height="20" as="geometry" />
        </mxCell>
        <mxCell id="VSTp_4rP8tjsOcfSHApI-283" value="" style="rounded=0;whiteSpace=wrap;html=1;" vertex="1" parent="1">
          <mxGeometry x="570" y="400" width="20" height="20" as="geometry" />
        </mxCell>
        <mxCell id="VSTp_4rP8tjsOcfSHApI-284" value="" style="rounded=0;whiteSpace=wrap;html=1;" vertex="1" parent="1">
          <mxGeometry x="550" y="400" width="20" height="20" as="geometry" />
        </mxCell>
        <mxCell id="VSTp_4rP8tjsOcfSHApI-285" value="" style="rounded=0;whiteSpace=wrap;html=1;" vertex="1" parent="1">
          <mxGeometry x="610" y="400" width="20" height="20" as="geometry" />
        </mxCell>
        <mxCell id="VSTp_4rP8tjsOcfSHApI-286" value="" style="rounded=0;whiteSpace=wrap;html=1;" vertex="1" parent="1">
          <mxGeometry x="590" y="400" width="20" height="20" as="geometry" />
        </mxCell>
        <mxCell id="VSTp_4rP8tjsOcfSHApI-287" value="" style="rounded=0;whiteSpace=wrap;html=1;" vertex="1" parent="1">
          <mxGeometry x="90" y="420" width="20" height="20" as="geometry" />
        </mxCell>
        <mxCell id="VSTp_4rP8tjsOcfSHApI-288" value="" style="rounded=0;whiteSpace=wrap;html=1;" vertex="1" parent="1">
          <mxGeometry x="70" y="420" width="20" height="20" as="geometry" />
        </mxCell>
        <mxCell id="VSTp_4rP8tjsOcfSHApI-289" value="" style="rounded=0;whiteSpace=wrap;html=1;" vertex="1" parent="1">
          <mxGeometry x="130" y="420" width="20" height="20" as="geometry" />
        </mxCell>
        <mxCell id="VSTp_4rP8tjsOcfSHApI-290" value="" style="rounded=0;whiteSpace=wrap;html=1;" vertex="1" parent="1">
          <mxGeometry x="110" y="420" width="20" height="20" as="geometry" />
        </mxCell>
        <mxCell id="VSTp_4rP8tjsOcfSHApI-291" value="" style="rounded=0;whiteSpace=wrap;html=1;" vertex="1" parent="1">
          <mxGeometry x="170" y="420" width="20" height="20" as="geometry" />
        </mxCell>
        <mxCell id="VSTp_4rP8tjsOcfSHApI-292" value="" style="rounded=0;whiteSpace=wrap;html=1;" vertex="1" parent="1">
          <mxGeometry x="150" y="420" width="20" height="20" as="geometry" />
        </mxCell>
        <mxCell id="VSTp_4rP8tjsOcfSHApI-293" value="" style="rounded=0;whiteSpace=wrap;html=1;" vertex="1" parent="1">
          <mxGeometry x="210" y="420" width="20" height="20" as="geometry" />
        </mxCell>
        <mxCell id="VSTp_4rP8tjsOcfSHApI-294" value="" style="rounded=0;whiteSpace=wrap;html=1;" vertex="1" parent="1">
          <mxGeometry x="190" y="420" width="20" height="20" as="geometry" />
        </mxCell>
        <mxCell id="VSTp_4rP8tjsOcfSHApI-295" value="" style="rounded=0;whiteSpace=wrap;html=1;" vertex="1" parent="1">
          <mxGeometry x="250" y="420" width="20" height="20" as="geometry" />
        </mxCell>
        <mxCell id="VSTp_4rP8tjsOcfSHApI-296" value="" style="rounded=0;whiteSpace=wrap;html=1;" vertex="1" parent="1">
          <mxGeometry x="230" y="420" width="20" height="20" as="geometry" />
        </mxCell>
        <mxCell id="VSTp_4rP8tjsOcfSHApI-297" value="" style="rounded=0;whiteSpace=wrap;html=1;" vertex="1" parent="1">
          <mxGeometry x="290" y="420" width="20" height="20" as="geometry" />
        </mxCell>
        <mxCell id="VSTp_4rP8tjsOcfSHApI-298" value="" style="rounded=0;whiteSpace=wrap;html=1;" vertex="1" parent="1">
          <mxGeometry x="270" y="420" width="20" height="20" as="geometry" />
        </mxCell>
        <mxCell id="VSTp_4rP8tjsOcfSHApI-299" value="" style="rounded=0;whiteSpace=wrap;html=1;" vertex="1" parent="1">
          <mxGeometry x="330" y="420" width="20" height="20" as="geometry" />
        </mxCell>
        <mxCell id="VSTp_4rP8tjsOcfSHApI-300" value="" style="rounded=0;whiteSpace=wrap;html=1;" vertex="1" parent="1">
          <mxGeometry x="310" y="420" width="20" height="20" as="geometry" />
        </mxCell>
        <mxCell id="VSTp_4rP8tjsOcfSHApI-301" value="" style="rounded=0;whiteSpace=wrap;html=1;" vertex="1" parent="1">
          <mxGeometry x="370" y="420" width="20" height="20" as="geometry" />
        </mxCell>
        <mxCell id="VSTp_4rP8tjsOcfSHApI-302" value="" style="rounded=0;whiteSpace=wrap;html=1;" vertex="1" parent="1">
          <mxGeometry x="350" y="420" width="20" height="20" as="geometry" />
        </mxCell>
        <mxCell id="VSTp_4rP8tjsOcfSHApI-303" value="" style="rounded=0;whiteSpace=wrap;html=1;" vertex="1" parent="1">
          <mxGeometry x="410" y="420" width="20" height="20" as="geometry" />
        </mxCell>
        <mxCell id="VSTp_4rP8tjsOcfSHApI-304" value="" style="rounded=0;whiteSpace=wrap;html=1;" vertex="1" parent="1">
          <mxGeometry x="390" y="420" width="20" height="20" as="geometry" />
        </mxCell>
        <mxCell id="VSTp_4rP8tjsOcfSHApI-305" value="" style="rounded=0;whiteSpace=wrap;html=1;" vertex="1" parent="1">
          <mxGeometry x="450" y="420" width="20" height="20" as="geometry" />
        </mxCell>
        <mxCell id="VSTp_4rP8tjsOcfSHApI-306" value="" style="rounded=0;whiteSpace=wrap;html=1;" vertex="1" parent="1">
          <mxGeometry x="430" y="420" width="20" height="20" as="geometry" />
        </mxCell>
        <mxCell id="VSTp_4rP8tjsOcfSHApI-307" value="" style="rounded=0;whiteSpace=wrap;html=1;" vertex="1" parent="1">
          <mxGeometry x="490" y="420" width="20" height="20" as="geometry" />
        </mxCell>
        <mxCell id="VSTp_4rP8tjsOcfSHApI-308" value="" style="rounded=0;whiteSpace=wrap;html=1;" vertex="1" parent="1">
          <mxGeometry x="470" y="420" width="20" height="20" as="geometry" />
        </mxCell>
        <mxCell id="VSTp_4rP8tjsOcfSHApI-309" value="" style="rounded=0;whiteSpace=wrap;html=1;" vertex="1" parent="1">
          <mxGeometry x="530" y="420" width="20" height="20" as="geometry" />
        </mxCell>
        <mxCell id="VSTp_4rP8tjsOcfSHApI-310" value="" style="rounded=0;whiteSpace=wrap;html=1;" vertex="1" parent="1">
          <mxGeometry x="510" y="420" width="20" height="20" as="geometry" />
        </mxCell>
        <mxCell id="VSTp_4rP8tjsOcfSHApI-311" value="" style="rounded=0;whiteSpace=wrap;html=1;" vertex="1" parent="1">
          <mxGeometry x="570" y="420" width="20" height="20" as="geometry" />
        </mxCell>
        <mxCell id="VSTp_4rP8tjsOcfSHApI-312" value="" style="rounded=0;whiteSpace=wrap;html=1;" vertex="1" parent="1">
          <mxGeometry x="550" y="420" width="20" height="20" as="geometry" />
        </mxCell>
        <mxCell id="VSTp_4rP8tjsOcfSHApI-313" value="" style="rounded=0;whiteSpace=wrap;html=1;" vertex="1" parent="1">
          <mxGeometry x="610" y="420" width="20" height="20" as="geometry" />
        </mxCell>
        <mxCell id="VSTp_4rP8tjsOcfSHApI-314" value="" style="rounded=0;whiteSpace=wrap;html=1;" vertex="1" parent="1">
          <mxGeometry x="590" y="420" width="20" height="20" as="geometry" />
        </mxCell>
        <mxCell id="VSTp_4rP8tjsOcfSHApI-315" value="" style="rounded=0;whiteSpace=wrap;html=1;" vertex="1" parent="1">
          <mxGeometry x="90" y="440" width="20" height="20" as="geometry" />
        </mxCell>
        <mxCell id="VSTp_4rP8tjsOcfSHApI-316" value="" style="rounded=0;whiteSpace=wrap;html=1;" vertex="1" parent="1">
          <mxGeometry x="70" y="440" width="20" height="20" as="geometry" />
        </mxCell>
        <mxCell id="VSTp_4rP8tjsOcfSHApI-317" value="" style="rounded=0;whiteSpace=wrap;html=1;" vertex="1" parent="1">
          <mxGeometry x="130" y="440" width="20" height="20" as="geometry" />
        </mxCell>
        <mxCell id="VSTp_4rP8tjsOcfSHApI-318" value="" style="rounded=0;whiteSpace=wrap;html=1;" vertex="1" parent="1">
          <mxGeometry x="110" y="440" width="20" height="20" as="geometry" />
        </mxCell>
        <mxCell id="VSTp_4rP8tjsOcfSHApI-319" value="" style="rounded=0;whiteSpace=wrap;html=1;" vertex="1" parent="1">
          <mxGeometry x="170" y="440" width="20" height="20" as="geometry" />
        </mxCell>
        <mxCell id="VSTp_4rP8tjsOcfSHApI-320" value="" style="rounded=0;whiteSpace=wrap;html=1;" vertex="1" parent="1">
          <mxGeometry x="150" y="440" width="20" height="20" as="geometry" />
        </mxCell>
        <mxCell id="VSTp_4rP8tjsOcfSHApI-321" value="" style="rounded=0;whiteSpace=wrap;html=1;" vertex="1" parent="1">
          <mxGeometry x="210" y="440" width="20" height="20" as="geometry" />
        </mxCell>
        <mxCell id="VSTp_4rP8tjsOcfSHApI-322" value="" style="rounded=0;whiteSpace=wrap;html=1;" vertex="1" parent="1">
          <mxGeometry x="190" y="440" width="20" height="20" as="geometry" />
        </mxCell>
        <mxCell id="VSTp_4rP8tjsOcfSHApI-323" value="" style="rounded=0;whiteSpace=wrap;html=1;" vertex="1" parent="1">
          <mxGeometry x="250" y="440" width="20" height="20" as="geometry" />
        </mxCell>
        <mxCell id="VSTp_4rP8tjsOcfSHApI-324" value="" style="rounded=0;whiteSpace=wrap;html=1;" vertex="1" parent="1">
          <mxGeometry x="230" y="440" width="20" height="20" as="geometry" />
        </mxCell>
        <mxCell id="VSTp_4rP8tjsOcfSHApI-325" value="" style="rounded=0;whiteSpace=wrap;html=1;" vertex="1" parent="1">
          <mxGeometry x="290" y="440" width="20" height="20" as="geometry" />
        </mxCell>
        <mxCell id="VSTp_4rP8tjsOcfSHApI-326" value="" style="rounded=0;whiteSpace=wrap;html=1;" vertex="1" parent="1">
          <mxGeometry x="270" y="440" width="20" height="20" as="geometry" />
        </mxCell>
        <mxCell id="VSTp_4rP8tjsOcfSHApI-327" value="" style="rounded=0;whiteSpace=wrap;html=1;" vertex="1" parent="1">
          <mxGeometry x="330" y="440" width="20" height="20" as="geometry" />
        </mxCell>
        <mxCell id="VSTp_4rP8tjsOcfSHApI-328" value="" style="rounded=0;whiteSpace=wrap;html=1;" vertex="1" parent="1">
          <mxGeometry x="310" y="440" width="20" height="20" as="geometry" />
        </mxCell>
        <mxCell id="VSTp_4rP8tjsOcfSHApI-329" value="" style="rounded=0;whiteSpace=wrap;html=1;" vertex="1" parent="1">
          <mxGeometry x="370" y="440" width="20" height="20" as="geometry" />
        </mxCell>
        <mxCell id="VSTp_4rP8tjsOcfSHApI-330" value="" style="rounded=0;whiteSpace=wrap;html=1;" vertex="1" parent="1">
          <mxGeometry x="350" y="440" width="20" height="20" as="geometry" />
        </mxCell>
        <mxCell id="VSTp_4rP8tjsOcfSHApI-331" value="" style="rounded=0;whiteSpace=wrap;html=1;" vertex="1" parent="1">
          <mxGeometry x="410" y="440" width="20" height="20" as="geometry" />
        </mxCell>
        <mxCell id="VSTp_4rP8tjsOcfSHApI-332" value="" style="rounded=0;whiteSpace=wrap;html=1;" vertex="1" parent="1">
          <mxGeometry x="390" y="440" width="20" height="20" as="geometry" />
        </mxCell>
        <mxCell id="VSTp_4rP8tjsOcfSHApI-333" value="" style="rounded=0;whiteSpace=wrap;html=1;" vertex="1" parent="1">
          <mxGeometry x="450" y="440" width="20" height="20" as="geometry" />
        </mxCell>
        <mxCell id="VSTp_4rP8tjsOcfSHApI-334" value="" style="rounded=0;whiteSpace=wrap;html=1;" vertex="1" parent="1">
          <mxGeometry x="430" y="440" width="20" height="20" as="geometry" />
        </mxCell>
        <mxCell id="VSTp_4rP8tjsOcfSHApI-335" value="" style="rounded=0;whiteSpace=wrap;html=1;" vertex="1" parent="1">
          <mxGeometry x="490" y="440" width="20" height="20" as="geometry" />
        </mxCell>
        <mxCell id="VSTp_4rP8tjsOcfSHApI-336" value="" style="rounded=0;whiteSpace=wrap;html=1;" vertex="1" parent="1">
          <mxGeometry x="470" y="440" width="20" height="20" as="geometry" />
        </mxCell>
        <mxCell id="VSTp_4rP8tjsOcfSHApI-337" value="" style="rounded=0;whiteSpace=wrap;html=1;" vertex="1" parent="1">
          <mxGeometry x="530" y="440" width="20" height="20" as="geometry" />
        </mxCell>
        <mxCell id="VSTp_4rP8tjsOcfSHApI-338" value="" style="rounded=0;whiteSpace=wrap;html=1;" vertex="1" parent="1">
          <mxGeometry x="510" y="440" width="20" height="20" as="geometry" />
        </mxCell>
        <mxCell id="VSTp_4rP8tjsOcfSHApI-339" value="" style="rounded=0;whiteSpace=wrap;html=1;" vertex="1" parent="1">
          <mxGeometry x="570" y="440" width="20" height="20" as="geometry" />
        </mxCell>
        <mxCell id="VSTp_4rP8tjsOcfSHApI-340" value="" style="rounded=0;whiteSpace=wrap;html=1;" vertex="1" parent="1">
          <mxGeometry x="550" y="440" width="20" height="20" as="geometry" />
        </mxCell>
        <mxCell id="VSTp_4rP8tjsOcfSHApI-341" value="" style="rounded=0;whiteSpace=wrap;html=1;" vertex="1" parent="1">
          <mxGeometry x="610" y="440" width="20" height="20" as="geometry" />
        </mxCell>
        <mxCell id="VSTp_4rP8tjsOcfSHApI-342" value="" style="rounded=0;whiteSpace=wrap;html=1;" vertex="1" parent="1">
          <mxGeometry x="590" y="440" width="20" height="20" as="geometry" />
        </mxCell>
        <mxCell id="VSTp_4rP8tjsOcfSHApI-343" value="" style="rounded=0;whiteSpace=wrap;html=1;" vertex="1" parent="1">
          <mxGeometry x="90" y="460" width="20" height="20" as="geometry" />
        </mxCell>
        <mxCell id="VSTp_4rP8tjsOcfSHApI-344" value="" style="rounded=0;whiteSpace=wrap;html=1;" vertex="1" parent="1">
          <mxGeometry x="70" y="460" width="20" height="20" as="geometry" />
        </mxCell>
        <mxCell id="VSTp_4rP8tjsOcfSHApI-345" value="" style="rounded=0;whiteSpace=wrap;html=1;" vertex="1" parent="1">
          <mxGeometry x="130" y="460" width="20" height="20" as="geometry" />
        </mxCell>
        <mxCell id="VSTp_4rP8tjsOcfSHApI-346" value="" style="rounded=0;whiteSpace=wrap;html=1;" vertex="1" parent="1">
          <mxGeometry x="110" y="460" width="20" height="20" as="geometry" />
        </mxCell>
        <mxCell id="VSTp_4rP8tjsOcfSHApI-347" value="" style="rounded=0;whiteSpace=wrap;html=1;" vertex="1" parent="1">
          <mxGeometry x="170" y="460" width="20" height="20" as="geometry" />
        </mxCell>
        <mxCell id="VSTp_4rP8tjsOcfSHApI-348" value="" style="rounded=0;whiteSpace=wrap;html=1;" vertex="1" parent="1">
          <mxGeometry x="150" y="460" width="20" height="20" as="geometry" />
        </mxCell>
        <mxCell id="VSTp_4rP8tjsOcfSHApI-349" value="" style="rounded=0;whiteSpace=wrap;html=1;" vertex="1" parent="1">
          <mxGeometry x="210" y="460" width="20" height="20" as="geometry" />
        </mxCell>
        <mxCell id="VSTp_4rP8tjsOcfSHApI-350" value="" style="rounded=0;whiteSpace=wrap;html=1;" vertex="1" parent="1">
          <mxGeometry x="190" y="460" width="20" height="20" as="geometry" />
        </mxCell>
        <mxCell id="VSTp_4rP8tjsOcfSHApI-351" value="" style="rounded=0;whiteSpace=wrap;html=1;" vertex="1" parent="1">
          <mxGeometry x="250" y="460" width="20" height="20" as="geometry" />
        </mxCell>
        <mxCell id="VSTp_4rP8tjsOcfSHApI-352" value="" style="rounded=0;whiteSpace=wrap;html=1;" vertex="1" parent="1">
          <mxGeometry x="230" y="460" width="20" height="20" as="geometry" />
        </mxCell>
        <mxCell id="VSTp_4rP8tjsOcfSHApI-353" value="" style="rounded=0;whiteSpace=wrap;html=1;" vertex="1" parent="1">
          <mxGeometry x="290" y="460" width="20" height="20" as="geometry" />
        </mxCell>
        <mxCell id="VSTp_4rP8tjsOcfSHApI-354" value="" style="rounded=0;whiteSpace=wrap;html=1;" vertex="1" parent="1">
          <mxGeometry x="270" y="460" width="20" height="20" as="geometry" />
        </mxCell>
        <mxCell id="VSTp_4rP8tjsOcfSHApI-355" value="" style="rounded=0;whiteSpace=wrap;html=1;" vertex="1" parent="1">
          <mxGeometry x="330" y="460" width="20" height="20" as="geometry" />
        </mxCell>
        <mxCell id="VSTp_4rP8tjsOcfSHApI-356" value="" style="rounded=0;whiteSpace=wrap;html=1;" vertex="1" parent="1">
          <mxGeometry x="310" y="460" width="20" height="20" as="geometry" />
        </mxCell>
        <mxCell id="VSTp_4rP8tjsOcfSHApI-357" value="" style="rounded=0;whiteSpace=wrap;html=1;" vertex="1" parent="1">
          <mxGeometry x="370" y="460" width="20" height="20" as="geometry" />
        </mxCell>
        <mxCell id="VSTp_4rP8tjsOcfSHApI-358" value="" style="rounded=0;whiteSpace=wrap;html=1;" vertex="1" parent="1">
          <mxGeometry x="350" y="460" width="20" height="20" as="geometry" />
        </mxCell>
        <mxCell id="VSTp_4rP8tjsOcfSHApI-359" value="" style="rounded=0;whiteSpace=wrap;html=1;" vertex="1" parent="1">
          <mxGeometry x="410" y="460" width="20" height="20" as="geometry" />
        </mxCell>
        <mxCell id="VSTp_4rP8tjsOcfSHApI-360" value="" style="rounded=0;whiteSpace=wrap;html=1;" vertex="1" parent="1">
          <mxGeometry x="390" y="460" width="20" height="20" as="geometry" />
        </mxCell>
        <mxCell id="VSTp_4rP8tjsOcfSHApI-361" value="" style="rounded=0;whiteSpace=wrap;html=1;" vertex="1" parent="1">
          <mxGeometry x="450" y="460" width="20" height="20" as="geometry" />
        </mxCell>
        <mxCell id="VSTp_4rP8tjsOcfSHApI-362" value="" style="rounded=0;whiteSpace=wrap;html=1;" vertex="1" parent="1">
          <mxGeometry x="430" y="460" width="20" height="20" as="geometry" />
        </mxCell>
        <mxCell id="VSTp_4rP8tjsOcfSHApI-363" value="" style="rounded=0;whiteSpace=wrap;html=1;" vertex="1" parent="1">
          <mxGeometry x="490" y="460" width="20" height="20" as="geometry" />
        </mxCell>
        <mxCell id="VSTp_4rP8tjsOcfSHApI-364" value="" style="rounded=0;whiteSpace=wrap;html=1;" vertex="1" parent="1">
          <mxGeometry x="470" y="460" width="20" height="20" as="geometry" />
        </mxCell>
        <mxCell id="VSTp_4rP8tjsOcfSHApI-365" value="" style="rounded=0;whiteSpace=wrap;html=1;" vertex="1" parent="1">
          <mxGeometry x="530" y="460" width="20" height="20" as="geometry" />
        </mxCell>
        <mxCell id="VSTp_4rP8tjsOcfSHApI-366" value="" style="rounded=0;whiteSpace=wrap;html=1;" vertex="1" parent="1">
          <mxGeometry x="510" y="460" width="20" height="20" as="geometry" />
        </mxCell>
        <mxCell id="VSTp_4rP8tjsOcfSHApI-367" value="" style="rounded=0;whiteSpace=wrap;html=1;" vertex="1" parent="1">
          <mxGeometry x="570" y="460" width="20" height="20" as="geometry" />
        </mxCell>
        <mxCell id="VSTp_4rP8tjsOcfSHApI-368" value="" style="rounded=0;whiteSpace=wrap;html=1;" vertex="1" parent="1">
          <mxGeometry x="550" y="460" width="20" height="20" as="geometry" />
        </mxCell>
        <mxCell id="VSTp_4rP8tjsOcfSHApI-369" value="" style="rounded=0;whiteSpace=wrap;html=1;" vertex="1" parent="1">
          <mxGeometry x="610" y="460" width="20" height="20" as="geometry" />
        </mxCell>
        <mxCell id="VSTp_4rP8tjsOcfSHApI-370" value="" style="rounded=0;whiteSpace=wrap;html=1;" vertex="1" parent="1">
          <mxGeometry x="590" y="460" width="20" height="20" as="geometry" />
        </mxCell>
        <mxCell id="VSTp_4rP8tjsOcfSHApI-371" value="" style="rounded=0;whiteSpace=wrap;html=1;" vertex="1" parent="1">
          <mxGeometry x="90" y="480" width="20" height="20" as="geometry" />
        </mxCell>
        <mxCell id="VSTp_4rP8tjsOcfSHApI-372" value="" style="rounded=0;whiteSpace=wrap;html=1;" vertex="1" parent="1">
          <mxGeometry x="70" y="480" width="20" height="20" as="geometry" />
        </mxCell>
        <mxCell id="VSTp_4rP8tjsOcfSHApI-373" value="" style="rounded=0;whiteSpace=wrap;html=1;" vertex="1" parent="1">
          <mxGeometry x="130" y="480" width="20" height="20" as="geometry" />
        </mxCell>
        <mxCell id="VSTp_4rP8tjsOcfSHApI-374" value="" style="rounded=0;whiteSpace=wrap;html=1;" vertex="1" parent="1">
          <mxGeometry x="110" y="480" width="20" height="20" as="geometry" />
        </mxCell>
        <mxCell id="VSTp_4rP8tjsOcfSHApI-375" value="" style="rounded=0;whiteSpace=wrap;html=1;" vertex="1" parent="1">
          <mxGeometry x="170" y="480" width="20" height="20" as="geometry" />
        </mxCell>
        <mxCell id="VSTp_4rP8tjsOcfSHApI-376" value="" style="rounded=0;whiteSpace=wrap;html=1;" vertex="1" parent="1">
          <mxGeometry x="150" y="480" width="20" height="20" as="geometry" />
        </mxCell>
        <mxCell id="VSTp_4rP8tjsOcfSHApI-377" value="" style="rounded=0;whiteSpace=wrap;html=1;" vertex="1" parent="1">
          <mxGeometry x="210" y="480" width="20" height="20" as="geometry" />
        </mxCell>
        <mxCell id="VSTp_4rP8tjsOcfSHApI-378" value="" style="rounded=0;whiteSpace=wrap;html=1;fillColor=#f8cecc;strokeColor=#b85450;" vertex="1" parent="1">
          <mxGeometry x="190" y="480" width="20" height="20" as="geometry" />
        </mxCell>
        <mxCell id="VSTp_4rP8tjsOcfSHApI-379" value="" style="rounded=0;whiteSpace=wrap;html=1;" vertex="1" parent="1">
          <mxGeometry x="250" y="480" width="20" height="20" as="geometry" />
        </mxCell>
        <mxCell id="VSTp_4rP8tjsOcfSHApI-380" value="" style="rounded=0;whiteSpace=wrap;html=1;" vertex="1" parent="1">
          <mxGeometry x="230" y="480" width="20" height="20" as="geometry" />
        </mxCell>
        <mxCell id="VSTp_4rP8tjsOcfSHApI-381" value="" style="rounded=0;whiteSpace=wrap;html=1;" vertex="1" parent="1">
          <mxGeometry x="290" y="480" width="20" height="20" as="geometry" />
        </mxCell>
        <mxCell id="VSTp_4rP8tjsOcfSHApI-382" value="" style="rounded=0;whiteSpace=wrap;html=1;" vertex="1" parent="1">
          <mxGeometry x="270" y="480" width="20" height="20" as="geometry" />
        </mxCell>
        <mxCell id="VSTp_4rP8tjsOcfSHApI-383" value="" style="rounded=0;whiteSpace=wrap;html=1;" vertex="1" parent="1">
          <mxGeometry x="330" y="480" width="20" height="20" as="geometry" />
        </mxCell>
        <mxCell id="VSTp_4rP8tjsOcfSHApI-384" value="" style="rounded=0;whiteSpace=wrap;html=1;" vertex="1" parent="1">
          <mxGeometry x="310" y="480" width="20" height="20" as="geometry" />
        </mxCell>
        <mxCell id="VSTp_4rP8tjsOcfSHApI-385" value="" style="rounded=0;whiteSpace=wrap;html=1;" vertex="1" parent="1">
          <mxGeometry x="370" y="480" width="20" height="20" as="geometry" />
        </mxCell>
        <mxCell id="VSTp_4rP8tjsOcfSHApI-386" value="" style="rounded=0;whiteSpace=wrap;html=1;" vertex="1" parent="1">
          <mxGeometry x="350" y="480" width="20" height="20" as="geometry" />
        </mxCell>
        <mxCell id="VSTp_4rP8tjsOcfSHApI-387" value="" style="rounded=0;whiteSpace=wrap;html=1;" vertex="1" parent="1">
          <mxGeometry x="410" y="480" width="20" height="20" as="geometry" />
        </mxCell>
        <mxCell id="VSTp_4rP8tjsOcfSHApI-388" value="" style="rounded=0;whiteSpace=wrap;html=1;" vertex="1" parent="1">
          <mxGeometry x="390" y="480" width="20" height="20" as="geometry" />
        </mxCell>
        <mxCell id="VSTp_4rP8tjsOcfSHApI-389" value="" style="rounded=0;whiteSpace=wrap;html=1;" vertex="1" parent="1">
          <mxGeometry x="450" y="480" width="20" height="20" as="geometry" />
        </mxCell>
        <mxCell id="VSTp_4rP8tjsOcfSHApI-390" value="" style="rounded=0;whiteSpace=wrap;html=1;" vertex="1" parent="1">
          <mxGeometry x="430" y="480" width="20" height="20" as="geometry" />
        </mxCell>
        <mxCell id="VSTp_4rP8tjsOcfSHApI-391" value="" style="rounded=0;whiteSpace=wrap;html=1;" vertex="1" parent="1">
          <mxGeometry x="490" y="480" width="20" height="20" as="geometry" />
        </mxCell>
        <mxCell id="VSTp_4rP8tjsOcfSHApI-392" value="" style="rounded=0;whiteSpace=wrap;html=1;" vertex="1" parent="1">
          <mxGeometry x="470" y="480" width="20" height="20" as="geometry" />
        </mxCell>
        <mxCell id="VSTp_4rP8tjsOcfSHApI-393" value="" style="rounded=0;whiteSpace=wrap;html=1;" vertex="1" parent="1">
          <mxGeometry x="530" y="480" width="20" height="20" as="geometry" />
        </mxCell>
        <mxCell id="VSTp_4rP8tjsOcfSHApI-394" value="" style="rounded=0;whiteSpace=wrap;html=1;" vertex="1" parent="1">
          <mxGeometry x="510" y="480" width="20" height="20" as="geometry" />
        </mxCell>
        <mxCell id="VSTp_4rP8tjsOcfSHApI-395" value="" style="rounded=0;whiteSpace=wrap;html=1;" vertex="1" parent="1">
          <mxGeometry x="570" y="480" width="20" height="20" as="geometry" />
        </mxCell>
        <mxCell id="VSTp_4rP8tjsOcfSHApI-396" value="" style="rounded=0;whiteSpace=wrap;html=1;" vertex="1" parent="1">
          <mxGeometry x="550" y="480" width="20" height="20" as="geometry" />
        </mxCell>
        <mxCell id="VSTp_4rP8tjsOcfSHApI-397" value="" style="rounded=0;whiteSpace=wrap;html=1;" vertex="1" parent="1">
          <mxGeometry x="610" y="480" width="20" height="20" as="geometry" />
        </mxCell>
        <mxCell id="VSTp_4rP8tjsOcfSHApI-398" value="" style="rounded=0;whiteSpace=wrap;html=1;" vertex="1" parent="1">
          <mxGeometry x="590" y="480" width="20" height="20" as="geometry" />
        </mxCell>
        <mxCell id="VSTp_4rP8tjsOcfSHApI-399" value="" style="rounded=0;whiteSpace=wrap;html=1;" vertex="1" parent="1">
          <mxGeometry x="90" y="500" width="20" height="20" as="geometry" />
        </mxCell>
        <mxCell id="VSTp_4rP8tjsOcfSHApI-400" value="" style="rounded=0;whiteSpace=wrap;html=1;" vertex="1" parent="1">
          <mxGeometry x="70" y="500" width="20" height="20" as="geometry" />
        </mxCell>
        <mxCell id="VSTp_4rP8tjsOcfSHApI-401" value="" style="rounded=0;whiteSpace=wrap;html=1;" vertex="1" parent="1">
          <mxGeometry x="130" y="500" width="20" height="20" as="geometry" />
        </mxCell>
        <mxCell id="VSTp_4rP8tjsOcfSHApI-402" value="" style="rounded=0;whiteSpace=wrap;html=1;" vertex="1" parent="1">
          <mxGeometry x="110" y="500" width="20" height="20" as="geometry" />
        </mxCell>
        <mxCell id="VSTp_4rP8tjsOcfSHApI-403" value="" style="rounded=0;whiteSpace=wrap;html=1;" vertex="1" parent="1">
          <mxGeometry x="170" y="500" width="20" height="20" as="geometry" />
        </mxCell>
        <mxCell id="VSTp_4rP8tjsOcfSHApI-404" value="" style="rounded=0;whiteSpace=wrap;html=1;fillColor=#f8cecc;strokeColor=#b85450;" vertex="1" parent="1">
          <mxGeometry x="150" y="500" width="20" height="20" as="geometry" />
        </mxCell>
        <mxCell id="VSTp_4rP8tjsOcfSHApI-405" value="" style="rounded=0;whiteSpace=wrap;html=1;" vertex="1" parent="1">
          <mxGeometry x="210" y="500" width="20" height="20" as="geometry" />
        </mxCell>
        <mxCell id="VSTp_4rP8tjsOcfSHApI-406" value="" style="rounded=0;whiteSpace=wrap;html=1;fillColor=#f8cecc;strokeColor=#b85450;" vertex="1" parent="1">
          <mxGeometry x="190" y="500" width="20" height="20" as="geometry" />
        </mxCell>
        <mxCell id="VSTp_4rP8tjsOcfSHApI-407" value="" style="rounded=0;whiteSpace=wrap;html=1;" vertex="1" parent="1">
          <mxGeometry x="250" y="500" width="20" height="20" as="geometry" />
        </mxCell>
        <mxCell id="VSTp_4rP8tjsOcfSHApI-408" value="" style="rounded=0;whiteSpace=wrap;html=1;" vertex="1" parent="1">
          <mxGeometry x="230" y="500" width="20" height="20" as="geometry" />
        </mxCell>
        <mxCell id="VSTp_4rP8tjsOcfSHApI-409" value="" style="rounded=0;whiteSpace=wrap;html=1;" vertex="1" parent="1">
          <mxGeometry x="290" y="500" width="20" height="20" as="geometry" />
        </mxCell>
        <mxCell id="VSTp_4rP8tjsOcfSHApI-410" value="" style="rounded=0;whiteSpace=wrap;html=1;" vertex="1" parent="1">
          <mxGeometry x="270" y="500" width="20" height="20" as="geometry" />
        </mxCell>
        <mxCell id="VSTp_4rP8tjsOcfSHApI-411" value="" style="rounded=0;whiteSpace=wrap;html=1;" vertex="1" parent="1">
          <mxGeometry x="330" y="500" width="20" height="20" as="geometry" />
        </mxCell>
        <mxCell id="VSTp_4rP8tjsOcfSHApI-412" value="" style="rounded=0;whiteSpace=wrap;html=1;" vertex="1" parent="1">
          <mxGeometry x="310" y="500" width="20" height="20" as="geometry" />
        </mxCell>
        <mxCell id="VSTp_4rP8tjsOcfSHApI-413" value="" style="rounded=0;whiteSpace=wrap;html=1;" vertex="1" parent="1">
          <mxGeometry x="370" y="500" width="20" height="20" as="geometry" />
        </mxCell>
        <mxCell id="VSTp_4rP8tjsOcfSHApI-414" value="" style="rounded=0;whiteSpace=wrap;html=1;" vertex="1" parent="1">
          <mxGeometry x="350" y="500" width="20" height="20" as="geometry" />
        </mxCell>
        <mxCell id="VSTp_4rP8tjsOcfSHApI-415" value="" style="rounded=0;whiteSpace=wrap;html=1;" vertex="1" parent="1">
          <mxGeometry x="410" y="500" width="20" height="20" as="geometry" />
        </mxCell>
        <mxCell id="VSTp_4rP8tjsOcfSHApI-416" value="" style="rounded=0;whiteSpace=wrap;html=1;" vertex="1" parent="1">
          <mxGeometry x="390" y="500" width="20" height="20" as="geometry" />
        </mxCell>
        <mxCell id="VSTp_4rP8tjsOcfSHApI-417" value="" style="rounded=0;whiteSpace=wrap;html=1;" vertex="1" parent="1">
          <mxGeometry x="450" y="500" width="20" height="20" as="geometry" />
        </mxCell>
        <mxCell id="VSTp_4rP8tjsOcfSHApI-418" value="" style="rounded=0;whiteSpace=wrap;html=1;" vertex="1" parent="1">
          <mxGeometry x="430" y="500" width="20" height="20" as="geometry" />
        </mxCell>
        <mxCell id="VSTp_4rP8tjsOcfSHApI-419" value="" style="rounded=0;whiteSpace=wrap;html=1;" vertex="1" parent="1">
          <mxGeometry x="490" y="500" width="20" height="20" as="geometry" />
        </mxCell>
        <mxCell id="VSTp_4rP8tjsOcfSHApI-420" value="" style="rounded=0;whiteSpace=wrap;html=1;" vertex="1" parent="1">
          <mxGeometry x="470" y="500" width="20" height="20" as="geometry" />
        </mxCell>
        <mxCell id="VSTp_4rP8tjsOcfSHApI-421" value="" style="rounded=0;whiteSpace=wrap;html=1;fillColor=#dae8fc;strokeColor=#6c8ebf;" vertex="1" parent="1">
          <mxGeometry x="530" y="500" width="20" height="20" as="geometry" />
        </mxCell>
        <mxCell id="VSTp_4rP8tjsOcfSHApI-422" value="" style="rounded=0;whiteSpace=wrap;html=1;" vertex="1" parent="1">
          <mxGeometry x="510" y="500" width="20" height="20" as="geometry" />
        </mxCell>
        <mxCell id="VSTp_4rP8tjsOcfSHApI-423" value="" style="rounded=0;whiteSpace=wrap;html=1;" vertex="1" parent="1">
          <mxGeometry x="570" y="500" width="20" height="20" as="geometry" />
        </mxCell>
        <mxCell id="VSTp_4rP8tjsOcfSHApI-424" value="" style="rounded=0;whiteSpace=wrap;html=1;" vertex="1" parent="1">
          <mxGeometry x="550" y="500" width="20" height="20" as="geometry" />
        </mxCell>
        <mxCell id="VSTp_4rP8tjsOcfSHApI-425" value="" style="rounded=0;whiteSpace=wrap;html=1;" vertex="1" parent="1">
          <mxGeometry x="610" y="500" width="20" height="20" as="geometry" />
        </mxCell>
        <mxCell id="VSTp_4rP8tjsOcfSHApI-426" value="" style="rounded=0;whiteSpace=wrap;html=1;" vertex="1" parent="1">
          <mxGeometry x="590" y="500" width="20" height="20" as="geometry" />
        </mxCell>
        <mxCell id="VSTp_4rP8tjsOcfSHApI-427" value="" style="rounded=0;whiteSpace=wrap;html=1;" vertex="1" parent="1">
          <mxGeometry x="90" y="520" width="20" height="20" as="geometry" />
        </mxCell>
        <mxCell id="VSTp_4rP8tjsOcfSHApI-428" value="" style="rounded=0;whiteSpace=wrap;html=1;" vertex="1" parent="1">
          <mxGeometry x="70" y="520" width="20" height="20" as="geometry" />
        </mxCell>
        <mxCell id="VSTp_4rP8tjsOcfSHApI-429" value="" style="rounded=0;whiteSpace=wrap;html=1;" vertex="1" parent="1">
          <mxGeometry x="130" y="520" width="20" height="20" as="geometry" />
        </mxCell>
        <mxCell id="VSTp_4rP8tjsOcfSHApI-430" value="" style="rounded=0;whiteSpace=wrap;html=1;" vertex="1" parent="1">
          <mxGeometry x="110" y="520" width="20" height="20" as="geometry" />
        </mxCell>
        <mxCell id="VSTp_4rP8tjsOcfSHApI-431" value="" style="rounded=0;whiteSpace=wrap;html=1;fillColor=#f8cecc;strokeColor=#b85450;" vertex="1" parent="1">
          <mxGeometry x="170" y="520" width="20" height="20" as="geometry" />
        </mxCell>
        <mxCell id="VSTp_4rP8tjsOcfSHApI-432" value="" style="rounded=0;whiteSpace=wrap;html=1;" vertex="1" parent="1">
          <mxGeometry x="150" y="520" width="20" height="20" as="geometry" />
        </mxCell>
        <mxCell id="VSTp_4rP8tjsOcfSHApI-433" value="" style="rounded=0;whiteSpace=wrap;html=1;" vertex="1" parent="1">
          <mxGeometry x="210" y="520" width="20" height="20" as="geometry" />
        </mxCell>
        <mxCell id="VSTp_4rP8tjsOcfSHApI-434" value="" style="rounded=0;whiteSpace=wrap;html=1;fillColor=#f8cecc;strokeColor=#b85450;" vertex="1" parent="1">
          <mxGeometry x="190" y="520" width="20" height="20" as="geometry" />
        </mxCell>
        <mxCell id="VSTp_4rP8tjsOcfSHApI-435" value="" style="rounded=0;whiteSpace=wrap;html=1;" vertex="1" parent="1">
          <mxGeometry x="250" y="520" width="20" height="20" as="geometry" />
        </mxCell>
        <mxCell id="VSTp_4rP8tjsOcfSHApI-436" value="" style="rounded=0;whiteSpace=wrap;html=1;" vertex="1" parent="1">
          <mxGeometry x="230" y="520" width="20" height="20" as="geometry" />
        </mxCell>
        <mxCell id="VSTp_4rP8tjsOcfSHApI-437" value="" style="rounded=0;whiteSpace=wrap;html=1;" vertex="1" parent="1">
          <mxGeometry x="290" y="520" width="20" height="20" as="geometry" />
        </mxCell>
        <mxCell id="VSTp_4rP8tjsOcfSHApI-438" value="" style="rounded=0;whiteSpace=wrap;html=1;" vertex="1" parent="1">
          <mxGeometry x="270" y="520" width="20" height="20" as="geometry" />
        </mxCell>
        <mxCell id="VSTp_4rP8tjsOcfSHApI-439" value="" style="rounded=0;whiteSpace=wrap;html=1;" vertex="1" parent="1">
          <mxGeometry x="330" y="520" width="20" height="20" as="geometry" />
        </mxCell>
        <mxCell id="VSTp_4rP8tjsOcfSHApI-440" value="" style="rounded=0;whiteSpace=wrap;html=1;" vertex="1" parent="1">
          <mxGeometry x="310" y="520" width="20" height="20" as="geometry" />
        </mxCell>
        <mxCell id="VSTp_4rP8tjsOcfSHApI-441" value="" style="rounded=0;whiteSpace=wrap;html=1;" vertex="1" parent="1">
          <mxGeometry x="370" y="520" width="20" height="20" as="geometry" />
        </mxCell>
        <mxCell id="VSTp_4rP8tjsOcfSHApI-442" value="" style="rounded=0;whiteSpace=wrap;html=1;" vertex="1" parent="1">
          <mxGeometry x="350" y="520" width="20" height="20" as="geometry" />
        </mxCell>
        <mxCell id="VSTp_4rP8tjsOcfSHApI-443" value="" style="rounded=0;whiteSpace=wrap;html=1;" vertex="1" parent="1">
          <mxGeometry x="410" y="520" width="20" height="20" as="geometry" />
        </mxCell>
        <mxCell id="VSTp_4rP8tjsOcfSHApI-444" value="" style="rounded=0;whiteSpace=wrap;html=1;" vertex="1" parent="1">
          <mxGeometry x="390" y="520" width="20" height="20" as="geometry" />
        </mxCell>
        <mxCell id="VSTp_4rP8tjsOcfSHApI-445" value="" style="rounded=0;whiteSpace=wrap;html=1;" vertex="1" parent="1">
          <mxGeometry x="450" y="520" width="20" height="20" as="geometry" />
        </mxCell>
        <mxCell id="VSTp_4rP8tjsOcfSHApI-446" value="" style="rounded=0;whiteSpace=wrap;html=1;" vertex="1" parent="1">
          <mxGeometry x="430" y="520" width="20" height="20" as="geometry" />
        </mxCell>
        <mxCell id="VSTp_4rP8tjsOcfSHApI-447" value="" style="rounded=0;whiteSpace=wrap;html=1;" vertex="1" parent="1">
          <mxGeometry x="490" y="520" width="20" height="20" as="geometry" />
        </mxCell>
        <mxCell id="VSTp_4rP8tjsOcfSHApI-448" value="" style="rounded=0;whiteSpace=wrap;html=1;" vertex="1" parent="1">
          <mxGeometry x="470" y="520" width="20" height="20" as="geometry" />
        </mxCell>
        <mxCell id="VSTp_4rP8tjsOcfSHApI-449" value="" style="rounded=0;whiteSpace=wrap;html=1;fillColor=#dae8fc;strokeColor=#6c8ebf;" vertex="1" parent="1">
          <mxGeometry x="530" y="520" width="20" height="20" as="geometry" />
        </mxCell>
        <mxCell id="VSTp_4rP8tjsOcfSHApI-450" value="" style="rounded=0;whiteSpace=wrap;html=1;" vertex="1" parent="1">
          <mxGeometry x="510" y="520" width="20" height="20" as="geometry" />
        </mxCell>
        <mxCell id="VSTp_4rP8tjsOcfSHApI-451" value="" style="rounded=0;whiteSpace=wrap;html=1;" vertex="1" parent="1">
          <mxGeometry x="570" y="520" width="20" height="20" as="geometry" />
        </mxCell>
        <mxCell id="VSTp_4rP8tjsOcfSHApI-452" value="" style="rounded=0;whiteSpace=wrap;html=1;" vertex="1" parent="1">
          <mxGeometry x="550" y="520" width="20" height="20" as="geometry" />
        </mxCell>
        <mxCell id="VSTp_4rP8tjsOcfSHApI-453" value="" style="rounded=0;whiteSpace=wrap;html=1;" vertex="1" parent="1">
          <mxGeometry x="610" y="520" width="20" height="20" as="geometry" />
        </mxCell>
        <mxCell id="VSTp_4rP8tjsOcfSHApI-454" value="" style="rounded=0;whiteSpace=wrap;html=1;" vertex="1" parent="1">
          <mxGeometry x="590" y="520" width="20" height="20" as="geometry" />
        </mxCell>
        <mxCell id="VSTp_4rP8tjsOcfSHApI-455" value="" style="rounded=0;whiteSpace=wrap;html=1;" vertex="1" parent="1">
          <mxGeometry x="90" y="540" width="20" height="20" as="geometry" />
        </mxCell>
        <mxCell id="VSTp_4rP8tjsOcfSHApI-456" value="" style="rounded=0;whiteSpace=wrap;html=1;" vertex="1" parent="1">
          <mxGeometry x="70" y="540" width="20" height="20" as="geometry" />
        </mxCell>
        <mxCell id="VSTp_4rP8tjsOcfSHApI-457" value="" style="rounded=0;whiteSpace=wrap;html=1;" vertex="1" parent="1">
          <mxGeometry x="130" y="540" width="20" height="20" as="geometry" />
        </mxCell>
        <mxCell id="VSTp_4rP8tjsOcfSHApI-458" value="" style="rounded=0;whiteSpace=wrap;html=1;" vertex="1" parent="1">
          <mxGeometry x="110" y="540" width="20" height="20" as="geometry" />
        </mxCell>
        <mxCell id="VSTp_4rP8tjsOcfSHApI-459" value="" style="rounded=0;whiteSpace=wrap;html=1;" vertex="1" parent="1">
          <mxGeometry x="170" y="540" width="20" height="20" as="geometry" />
        </mxCell>
        <mxCell id="VSTp_4rP8tjsOcfSHApI-460" value="" style="rounded=0;whiteSpace=wrap;html=1;" vertex="1" parent="1">
          <mxGeometry x="150" y="540" width="20" height="20" as="geometry" />
        </mxCell>
        <mxCell id="VSTp_4rP8tjsOcfSHApI-461" value="" style="rounded=0;whiteSpace=wrap;html=1;" vertex="1" parent="1">
          <mxGeometry x="210" y="540" width="20" height="20" as="geometry" />
        </mxCell>
        <mxCell id="VSTp_4rP8tjsOcfSHApI-462" value="" style="rounded=0;whiteSpace=wrap;html=1;" vertex="1" parent="1">
          <mxGeometry x="190" y="540" width="20" height="20" as="geometry" />
        </mxCell>
        <mxCell id="VSTp_4rP8tjsOcfSHApI-463" value="" style="rounded=0;whiteSpace=wrap;html=1;" vertex="1" parent="1">
          <mxGeometry x="250" y="540" width="20" height="20" as="geometry" />
        </mxCell>
        <mxCell id="VSTp_4rP8tjsOcfSHApI-464" value="" style="rounded=0;whiteSpace=wrap;html=1;" vertex="1" parent="1">
          <mxGeometry x="230" y="540" width="20" height="20" as="geometry" />
        </mxCell>
        <mxCell id="VSTp_4rP8tjsOcfSHApI-465" value="" style="rounded=0;whiteSpace=wrap;html=1;" vertex="1" parent="1">
          <mxGeometry x="290" y="540" width="20" height="20" as="geometry" />
        </mxCell>
        <mxCell id="VSTp_4rP8tjsOcfSHApI-466" value="" style="rounded=0;whiteSpace=wrap;html=1;" vertex="1" parent="1">
          <mxGeometry x="270" y="540" width="20" height="20" as="geometry" />
        </mxCell>
        <mxCell id="VSTp_4rP8tjsOcfSHApI-467" value="" style="rounded=0;whiteSpace=wrap;html=1;" vertex="1" parent="1">
          <mxGeometry x="330" y="540" width="20" height="20" as="geometry" />
        </mxCell>
        <mxCell id="VSTp_4rP8tjsOcfSHApI-468" value="" style="rounded=0;whiteSpace=wrap;html=1;" vertex="1" parent="1">
          <mxGeometry x="310" y="540" width="20" height="20" as="geometry" />
        </mxCell>
        <mxCell id="VSTp_4rP8tjsOcfSHApI-469" value="" style="rounded=0;whiteSpace=wrap;html=1;" vertex="1" parent="1">
          <mxGeometry x="370" y="540" width="20" height="20" as="geometry" />
        </mxCell>
        <mxCell id="VSTp_4rP8tjsOcfSHApI-470" value="" style="rounded=0;whiteSpace=wrap;html=1;" vertex="1" parent="1">
          <mxGeometry x="350" y="540" width="20" height="20" as="geometry" />
        </mxCell>
        <mxCell id="VSTp_4rP8tjsOcfSHApI-471" value="" style="rounded=0;whiteSpace=wrap;html=1;" vertex="1" parent="1">
          <mxGeometry x="410" y="540" width="20" height="20" as="geometry" />
        </mxCell>
        <mxCell id="VSTp_4rP8tjsOcfSHApI-472" value="" style="rounded=0;whiteSpace=wrap;html=1;" vertex="1" parent="1">
          <mxGeometry x="390" y="540" width="20" height="20" as="geometry" />
        </mxCell>
        <mxCell id="VSTp_4rP8tjsOcfSHApI-473" value="" style="rounded=0;whiteSpace=wrap;html=1;" vertex="1" parent="1">
          <mxGeometry x="450" y="540" width="20" height="20" as="geometry" />
        </mxCell>
        <mxCell id="VSTp_4rP8tjsOcfSHApI-474" value="" style="rounded=0;whiteSpace=wrap;html=1;" vertex="1" parent="1">
          <mxGeometry x="430" y="540" width="20" height="20" as="geometry" />
        </mxCell>
        <mxCell id="VSTp_4rP8tjsOcfSHApI-475" value="" style="rounded=0;whiteSpace=wrap;html=1;" vertex="1" parent="1">
          <mxGeometry x="490" y="540" width="20" height="20" as="geometry" />
        </mxCell>
        <mxCell id="VSTp_4rP8tjsOcfSHApI-476" value="" style="rounded=0;whiteSpace=wrap;html=1;" vertex="1" parent="1">
          <mxGeometry x="470" y="540" width="20" height="20" as="geometry" />
        </mxCell>
        <mxCell id="VSTp_4rP8tjsOcfSHApI-477" value="" style="rounded=0;whiteSpace=wrap;html=1;fillColor=#dae8fc;strokeColor=#6c8ebf;" vertex="1" parent="1">
          <mxGeometry x="530" y="540" width="20" height="20" as="geometry" />
        </mxCell>
        <mxCell id="VSTp_4rP8tjsOcfSHApI-478" value="" style="rounded=0;whiteSpace=wrap;html=1;" vertex="1" parent="1">
          <mxGeometry x="510" y="540" width="20" height="20" as="geometry" />
        </mxCell>
        <mxCell id="VSTp_4rP8tjsOcfSHApI-479" value="" style="rounded=0;whiteSpace=wrap;html=1;" vertex="1" parent="1">
          <mxGeometry x="570" y="540" width="20" height="20" as="geometry" />
        </mxCell>
        <mxCell id="VSTp_4rP8tjsOcfSHApI-480" value="" style="rounded=0;whiteSpace=wrap;html=1;" vertex="1" parent="1">
          <mxGeometry x="550" y="540" width="20" height="20" as="geometry" />
        </mxCell>
        <mxCell id="VSTp_4rP8tjsOcfSHApI-481" value="" style="rounded=0;whiteSpace=wrap;html=1;" vertex="1" parent="1">
          <mxGeometry x="610" y="540" width="20" height="20" as="geometry" />
        </mxCell>
        <mxCell id="VSTp_4rP8tjsOcfSHApI-482" value="" style="rounded=0;whiteSpace=wrap;html=1;" vertex="1" parent="1">
          <mxGeometry x="590" y="540" width="20" height="20" as="geometry" />
        </mxCell>
        <mxCell id="VSTp_4rP8tjsOcfSHApI-483" value="" style="rounded=0;whiteSpace=wrap;html=1;" vertex="1" parent="1">
          <mxGeometry x="90" y="560" width="20" height="20" as="geometry" />
        </mxCell>
        <mxCell id="VSTp_4rP8tjsOcfSHApI-484" value="" style="rounded=0;whiteSpace=wrap;html=1;" vertex="1" parent="1">
          <mxGeometry x="70" y="560" width="20" height="20" as="geometry" />
        </mxCell>
        <mxCell id="VSTp_4rP8tjsOcfSHApI-485" value="" style="rounded=0;whiteSpace=wrap;html=1;" vertex="1" parent="1">
          <mxGeometry x="130" y="560" width="20" height="20" as="geometry" />
        </mxCell>
        <mxCell id="VSTp_4rP8tjsOcfSHApI-486" value="" style="rounded=0;whiteSpace=wrap;html=1;" vertex="1" parent="1">
          <mxGeometry x="110" y="560" width="20" height="20" as="geometry" />
        </mxCell>
        <mxCell id="VSTp_4rP8tjsOcfSHApI-487" value="" style="rounded=0;whiteSpace=wrap;html=1;" vertex="1" parent="1">
          <mxGeometry x="170" y="560" width="20" height="20" as="geometry" />
        </mxCell>
        <mxCell id="VSTp_4rP8tjsOcfSHApI-488" value="" style="rounded=0;whiteSpace=wrap;html=1;" vertex="1" parent="1">
          <mxGeometry x="150" y="560" width="20" height="20" as="geometry" />
        </mxCell>
        <mxCell id="VSTp_4rP8tjsOcfSHApI-489" value="" style="rounded=0;whiteSpace=wrap;html=1;" vertex="1" parent="1">
          <mxGeometry x="210" y="560" width="20" height="20" as="geometry" />
        </mxCell>
        <mxCell id="VSTp_4rP8tjsOcfSHApI-490" value="" style="rounded=0;whiteSpace=wrap;html=1;" vertex="1" parent="1">
          <mxGeometry x="190" y="560" width="20" height="20" as="geometry" />
        </mxCell>
        <mxCell id="VSTp_4rP8tjsOcfSHApI-491" value="" style="rounded=0;whiteSpace=wrap;html=1;" vertex="1" parent="1">
          <mxGeometry x="250" y="560" width="20" height="20" as="geometry" />
        </mxCell>
        <mxCell id="VSTp_4rP8tjsOcfSHApI-492" value="" style="rounded=0;whiteSpace=wrap;html=1;" vertex="1" parent="1">
          <mxGeometry x="230" y="560" width="20" height="20" as="geometry" />
        </mxCell>
        <mxCell id="VSTp_4rP8tjsOcfSHApI-493" value="" style="rounded=0;whiteSpace=wrap;html=1;" vertex="1" parent="1">
          <mxGeometry x="290" y="560" width="20" height="20" as="geometry" />
        </mxCell>
        <mxCell id="VSTp_4rP8tjsOcfSHApI-494" value="" style="rounded=0;whiteSpace=wrap;html=1;" vertex="1" parent="1">
          <mxGeometry x="270" y="560" width="20" height="20" as="geometry" />
        </mxCell>
        <mxCell id="VSTp_4rP8tjsOcfSHApI-495" value="" style="rounded=0;whiteSpace=wrap;html=1;" vertex="1" parent="1">
          <mxGeometry x="330" y="560" width="20" height="20" as="geometry" />
        </mxCell>
        <mxCell id="VSTp_4rP8tjsOcfSHApI-496" value="" style="rounded=0;whiteSpace=wrap;html=1;" vertex="1" parent="1">
          <mxGeometry x="310" y="560" width="20" height="20" as="geometry" />
        </mxCell>
        <mxCell id="VSTp_4rP8tjsOcfSHApI-497" value="" style="rounded=0;whiteSpace=wrap;html=1;" vertex="1" parent="1">
          <mxGeometry x="370" y="560" width="20" height="20" as="geometry" />
        </mxCell>
        <mxCell id="VSTp_4rP8tjsOcfSHApI-498" value="" style="rounded=0;whiteSpace=wrap;html=1;" vertex="1" parent="1">
          <mxGeometry x="350" y="560" width="20" height="20" as="geometry" />
        </mxCell>
        <mxCell id="VSTp_4rP8tjsOcfSHApI-499" value="" style="rounded=0;whiteSpace=wrap;html=1;" vertex="1" parent="1">
          <mxGeometry x="410" y="560" width="20" height="20" as="geometry" />
        </mxCell>
        <mxCell id="VSTp_4rP8tjsOcfSHApI-500" value="" style="rounded=0;whiteSpace=wrap;html=1;" vertex="1" parent="1">
          <mxGeometry x="390" y="560" width="20" height="20" as="geometry" />
        </mxCell>
        <mxCell id="VSTp_4rP8tjsOcfSHApI-501" value="" style="rounded=0;whiteSpace=wrap;html=1;" vertex="1" parent="1">
          <mxGeometry x="450" y="560" width="20" height="20" as="geometry" />
        </mxCell>
        <mxCell id="VSTp_4rP8tjsOcfSHApI-502" value="" style="rounded=0;whiteSpace=wrap;html=1;" vertex="1" parent="1">
          <mxGeometry x="430" y="560" width="20" height="20" as="geometry" />
        </mxCell>
        <mxCell id="VSTp_4rP8tjsOcfSHApI-503" value="" style="rounded=0;whiteSpace=wrap;html=1;" vertex="1" parent="1">
          <mxGeometry x="490" y="560" width="20" height="20" as="geometry" />
        </mxCell>
        <mxCell id="VSTp_4rP8tjsOcfSHApI-504" value="" style="rounded=0;whiteSpace=wrap;html=1;" vertex="1" parent="1">
          <mxGeometry x="470" y="560" width="20" height="20" as="geometry" />
        </mxCell>
        <mxCell id="VSTp_4rP8tjsOcfSHApI-505" value="" style="rounded=0;whiteSpace=wrap;html=1;" vertex="1" parent="1">
          <mxGeometry x="530" y="560" width="20" height="20" as="geometry" />
        </mxCell>
        <mxCell id="VSTp_4rP8tjsOcfSHApI-506" value="" style="rounded=0;whiteSpace=wrap;html=1;" vertex="1" parent="1">
          <mxGeometry x="510" y="560" width="20" height="20" as="geometry" />
        </mxCell>
        <mxCell id="VSTp_4rP8tjsOcfSHApI-507" value="" style="rounded=0;whiteSpace=wrap;html=1;" vertex="1" parent="1">
          <mxGeometry x="570" y="560" width="20" height="20" as="geometry" />
        </mxCell>
        <mxCell id="VSTp_4rP8tjsOcfSHApI-508" value="" style="rounded=0;whiteSpace=wrap;html=1;" vertex="1" parent="1">
          <mxGeometry x="550" y="560" width="20" height="20" as="geometry" />
        </mxCell>
        <mxCell id="VSTp_4rP8tjsOcfSHApI-509" value="" style="rounded=0;whiteSpace=wrap;html=1;" vertex="1" parent="1">
          <mxGeometry x="610" y="560" width="20" height="20" as="geometry" />
        </mxCell>
        <mxCell id="VSTp_4rP8tjsOcfSHApI-510" value="" style="rounded=0;whiteSpace=wrap;html=1;" vertex="1" parent="1">
          <mxGeometry x="590" y="560" width="20" height="20" as="geometry" />
        </mxCell>
        <mxCell id="VSTp_4rP8tjsOcfSHApI-511" value="" style="rounded=0;whiteSpace=wrap;html=1;" vertex="1" parent="1">
          <mxGeometry x="90" y="580" width="20" height="20" as="geometry" />
        </mxCell>
        <mxCell id="VSTp_4rP8tjsOcfSHApI-512" value="" style="rounded=0;whiteSpace=wrap;html=1;" vertex="1" parent="1">
          <mxGeometry x="70" y="580" width="20" height="20" as="geometry" />
        </mxCell>
        <mxCell id="VSTp_4rP8tjsOcfSHApI-513" value="" style="rounded=0;whiteSpace=wrap;html=1;" vertex="1" parent="1">
          <mxGeometry x="130" y="580" width="20" height="20" as="geometry" />
        </mxCell>
        <mxCell id="VSTp_4rP8tjsOcfSHApI-514" value="" style="rounded=0;whiteSpace=wrap;html=1;" vertex="1" parent="1">
          <mxGeometry x="110" y="580" width="20" height="20" as="geometry" />
        </mxCell>
        <mxCell id="VSTp_4rP8tjsOcfSHApI-515" value="" style="rounded=0;whiteSpace=wrap;html=1;" vertex="1" parent="1">
          <mxGeometry x="170" y="580" width="20" height="20" as="geometry" />
        </mxCell>
        <mxCell id="VSTp_4rP8tjsOcfSHApI-516" value="" style="rounded=0;whiteSpace=wrap;html=1;" vertex="1" parent="1">
          <mxGeometry x="150" y="580" width="20" height="20" as="geometry" />
        </mxCell>
        <mxCell id="VSTp_4rP8tjsOcfSHApI-517" value="" style="rounded=0;whiteSpace=wrap;html=1;" vertex="1" parent="1">
          <mxGeometry x="210" y="580" width="20" height="20" as="geometry" />
        </mxCell>
        <mxCell id="VSTp_4rP8tjsOcfSHApI-518" value="" style="rounded=0;whiteSpace=wrap;html=1;" vertex="1" parent="1">
          <mxGeometry x="190" y="580" width="20" height="20" as="geometry" />
        </mxCell>
        <mxCell id="VSTp_4rP8tjsOcfSHApI-519" value="" style="rounded=0;whiteSpace=wrap;html=1;" vertex="1" parent="1">
          <mxGeometry x="250" y="580" width="20" height="20" as="geometry" />
        </mxCell>
        <mxCell id="VSTp_4rP8tjsOcfSHApI-520" value="" style="rounded=0;whiteSpace=wrap;html=1;" vertex="1" parent="1">
          <mxGeometry x="230" y="580" width="20" height="20" as="geometry" />
        </mxCell>
        <mxCell id="VSTp_4rP8tjsOcfSHApI-521" value="" style="rounded=0;whiteSpace=wrap;html=1;" vertex="1" parent="1">
          <mxGeometry x="290" y="580" width="20" height="20" as="geometry" />
        </mxCell>
        <mxCell id="VSTp_4rP8tjsOcfSHApI-522" value="" style="rounded=0;whiteSpace=wrap;html=1;" vertex="1" parent="1">
          <mxGeometry x="270" y="580" width="20" height="20" as="geometry" />
        </mxCell>
        <mxCell id="VSTp_4rP8tjsOcfSHApI-523" value="" style="rounded=0;whiteSpace=wrap;html=1;" vertex="1" parent="1">
          <mxGeometry x="330" y="580" width="20" height="20" as="geometry" />
        </mxCell>
        <mxCell id="VSTp_4rP8tjsOcfSHApI-524" value="" style="rounded=0;whiteSpace=wrap;html=1;" vertex="1" parent="1">
          <mxGeometry x="310" y="580" width="20" height="20" as="geometry" />
        </mxCell>
        <mxCell id="VSTp_4rP8tjsOcfSHApI-525" value="" style="rounded=0;whiteSpace=wrap;html=1;" vertex="1" parent="1">
          <mxGeometry x="370" y="580" width="20" height="20" as="geometry" />
        </mxCell>
        <mxCell id="VSTp_4rP8tjsOcfSHApI-526" value="" style="rounded=0;whiteSpace=wrap;html=1;" vertex="1" parent="1">
          <mxGeometry x="350" y="580" width="20" height="20" as="geometry" />
        </mxCell>
        <mxCell id="VSTp_4rP8tjsOcfSHApI-527" value="" style="rounded=0;whiteSpace=wrap;html=1;" vertex="1" parent="1">
          <mxGeometry x="410" y="580" width="20" height="20" as="geometry" />
        </mxCell>
        <mxCell id="VSTp_4rP8tjsOcfSHApI-528" value="" style="rounded=0;whiteSpace=wrap;html=1;" vertex="1" parent="1">
          <mxGeometry x="390" y="580" width="20" height="20" as="geometry" />
        </mxCell>
        <mxCell id="VSTp_4rP8tjsOcfSHApI-529" value="" style="rounded=0;whiteSpace=wrap;html=1;" vertex="1" parent="1">
          <mxGeometry x="450" y="580" width="20" height="20" as="geometry" />
        </mxCell>
        <mxCell id="VSTp_4rP8tjsOcfSHApI-530" value="" style="rounded=0;whiteSpace=wrap;html=1;" vertex="1" parent="1">
          <mxGeometry x="430" y="580" width="20" height="20" as="geometry" />
        </mxCell>
        <mxCell id="VSTp_4rP8tjsOcfSHApI-531" value="" style="rounded=0;whiteSpace=wrap;html=1;" vertex="1" parent="1">
          <mxGeometry x="490" y="580" width="20" height="20" as="geometry" />
        </mxCell>
        <mxCell id="VSTp_4rP8tjsOcfSHApI-532" value="" style="rounded=0;whiteSpace=wrap;html=1;" vertex="1" parent="1">
          <mxGeometry x="470" y="580" width="20" height="20" as="geometry" />
        </mxCell>
        <mxCell id="VSTp_4rP8tjsOcfSHApI-533" value="" style="rounded=0;whiteSpace=wrap;html=1;" vertex="1" parent="1">
          <mxGeometry x="530" y="580" width="20" height="20" as="geometry" />
        </mxCell>
        <mxCell id="VSTp_4rP8tjsOcfSHApI-534" value="" style="rounded=0;whiteSpace=wrap;html=1;" vertex="1" parent="1">
          <mxGeometry x="510" y="580" width="20" height="20" as="geometry" />
        </mxCell>
        <mxCell id="VSTp_4rP8tjsOcfSHApI-535" value="" style="rounded=0;whiteSpace=wrap;html=1;" vertex="1" parent="1">
          <mxGeometry x="570" y="580" width="20" height="20" as="geometry" />
        </mxCell>
        <mxCell id="VSTp_4rP8tjsOcfSHApI-536" value="" style="rounded=0;whiteSpace=wrap;html=1;" vertex="1" parent="1">
          <mxGeometry x="550" y="580" width="20" height="20" as="geometry" />
        </mxCell>
        <mxCell id="VSTp_4rP8tjsOcfSHApI-537" value="" style="rounded=0;whiteSpace=wrap;html=1;" vertex="1" parent="1">
          <mxGeometry x="610" y="580" width="20" height="20" as="geometry" />
        </mxCell>
        <mxCell id="VSTp_4rP8tjsOcfSHApI-538" value="" style="rounded=0;whiteSpace=wrap;html=1;" vertex="1" parent="1">
          <mxGeometry x="590" y="580" width="20" height="20" as="geometry" />
        </mxCell>
        <mxCell id="VSTp_4rP8tjsOcfSHApI-539" value="" style="rounded=0;whiteSpace=wrap;html=1;" vertex="1" parent="1">
          <mxGeometry x="90" y="600" width="20" height="20" as="geometry" />
        </mxCell>
        <mxCell id="VSTp_4rP8tjsOcfSHApI-540" value="" style="rounded=0;whiteSpace=wrap;html=1;" vertex="1" parent="1">
          <mxGeometry x="70" y="600" width="20" height="20" as="geometry" />
        </mxCell>
        <mxCell id="VSTp_4rP8tjsOcfSHApI-541" value="" style="rounded=0;whiteSpace=wrap;html=1;" vertex="1" parent="1">
          <mxGeometry x="130" y="600" width="20" height="20" as="geometry" />
        </mxCell>
        <mxCell id="VSTp_4rP8tjsOcfSHApI-542" value="" style="rounded=0;whiteSpace=wrap;html=1;" vertex="1" parent="1">
          <mxGeometry x="110" y="600" width="20" height="20" as="geometry" />
        </mxCell>
        <mxCell id="VSTp_4rP8tjsOcfSHApI-543" value="" style="rounded=0;whiteSpace=wrap;html=1;" vertex="1" parent="1">
          <mxGeometry x="170" y="600" width="20" height="20" as="geometry" />
        </mxCell>
        <mxCell id="VSTp_4rP8tjsOcfSHApI-544" value="" style="rounded=0;whiteSpace=wrap;html=1;" vertex="1" parent="1">
          <mxGeometry x="150" y="600" width="20" height="20" as="geometry" />
        </mxCell>
        <mxCell id="VSTp_4rP8tjsOcfSHApI-545" value="" style="rounded=0;whiteSpace=wrap;html=1;" vertex="1" parent="1">
          <mxGeometry x="210" y="600" width="20" height="20" as="geometry" />
        </mxCell>
        <mxCell id="VSTp_4rP8tjsOcfSHApI-546" value="" style="rounded=0;whiteSpace=wrap;html=1;" vertex="1" parent="1">
          <mxGeometry x="190" y="600" width="20" height="20" as="geometry" />
        </mxCell>
        <mxCell id="VSTp_4rP8tjsOcfSHApI-547" value="" style="rounded=0;whiteSpace=wrap;html=1;" vertex="1" parent="1">
          <mxGeometry x="250" y="600" width="20" height="20" as="geometry" />
        </mxCell>
        <mxCell id="VSTp_4rP8tjsOcfSHApI-548" value="" style="rounded=0;whiteSpace=wrap;html=1;" vertex="1" parent="1">
          <mxGeometry x="230" y="600" width="20" height="20" as="geometry" />
        </mxCell>
        <mxCell id="VSTp_4rP8tjsOcfSHApI-549" value="" style="rounded=0;whiteSpace=wrap;html=1;" vertex="1" parent="1">
          <mxGeometry x="290" y="600" width="20" height="20" as="geometry" />
        </mxCell>
        <mxCell id="VSTp_4rP8tjsOcfSHApI-550" value="" style="rounded=0;whiteSpace=wrap;html=1;" vertex="1" parent="1">
          <mxGeometry x="270" y="600" width="20" height="20" as="geometry" />
        </mxCell>
        <mxCell id="VSTp_4rP8tjsOcfSHApI-551" value="" style="rounded=0;whiteSpace=wrap;html=1;" vertex="1" parent="1">
          <mxGeometry x="330" y="600" width="20" height="20" as="geometry" />
        </mxCell>
        <mxCell id="VSTp_4rP8tjsOcfSHApI-552" value="" style="rounded=0;whiteSpace=wrap;html=1;" vertex="1" parent="1">
          <mxGeometry x="310" y="600" width="20" height="20" as="geometry" />
        </mxCell>
        <mxCell id="VSTp_4rP8tjsOcfSHApI-553" value="" style="rounded=0;whiteSpace=wrap;html=1;" vertex="1" parent="1">
          <mxGeometry x="370" y="600" width="20" height="20" as="geometry" />
        </mxCell>
        <mxCell id="VSTp_4rP8tjsOcfSHApI-554" value="" style="rounded=0;whiteSpace=wrap;html=1;" vertex="1" parent="1">
          <mxGeometry x="350" y="600" width="20" height="20" as="geometry" />
        </mxCell>
        <mxCell id="VSTp_4rP8tjsOcfSHApI-555" value="" style="rounded=0;whiteSpace=wrap;html=1;" vertex="1" parent="1">
          <mxGeometry x="410" y="600" width="20" height="20" as="geometry" />
        </mxCell>
        <mxCell id="VSTp_4rP8tjsOcfSHApI-556" value="" style="rounded=0;whiteSpace=wrap;html=1;" vertex="1" parent="1">
          <mxGeometry x="390" y="600" width="20" height="20" as="geometry" />
        </mxCell>
        <mxCell id="VSTp_4rP8tjsOcfSHApI-557" value="" style="rounded=0;whiteSpace=wrap;html=1;" vertex="1" parent="1">
          <mxGeometry x="450" y="600" width="20" height="20" as="geometry" />
        </mxCell>
        <mxCell id="VSTp_4rP8tjsOcfSHApI-558" value="" style="rounded=0;whiteSpace=wrap;html=1;" vertex="1" parent="1">
          <mxGeometry x="430" y="600" width="20" height="20" as="geometry" />
        </mxCell>
        <mxCell id="VSTp_4rP8tjsOcfSHApI-559" value="" style="rounded=0;whiteSpace=wrap;html=1;" vertex="1" parent="1">
          <mxGeometry x="490" y="600" width="20" height="20" as="geometry" />
        </mxCell>
        <mxCell id="VSTp_4rP8tjsOcfSHApI-560" value="" style="rounded=0;whiteSpace=wrap;html=1;" vertex="1" parent="1">
          <mxGeometry x="470" y="600" width="20" height="20" as="geometry" />
        </mxCell>
        <mxCell id="VSTp_4rP8tjsOcfSHApI-561" value="" style="rounded=0;whiteSpace=wrap;html=1;" vertex="1" parent="1">
          <mxGeometry x="530" y="600" width="20" height="20" as="geometry" />
        </mxCell>
        <mxCell id="VSTp_4rP8tjsOcfSHApI-562" value="" style="rounded=0;whiteSpace=wrap;html=1;" vertex="1" parent="1">
          <mxGeometry x="510" y="600" width="20" height="20" as="geometry" />
        </mxCell>
        <mxCell id="VSTp_4rP8tjsOcfSHApI-563" value="" style="rounded=0;whiteSpace=wrap;html=1;" vertex="1" parent="1">
          <mxGeometry x="570" y="600" width="20" height="20" as="geometry" />
        </mxCell>
        <mxCell id="VSTp_4rP8tjsOcfSHApI-564" value="" style="rounded=0;whiteSpace=wrap;html=1;" vertex="1" parent="1">
          <mxGeometry x="550" y="600" width="20" height="20" as="geometry" />
        </mxCell>
        <mxCell id="VSTp_4rP8tjsOcfSHApI-565" value="" style="rounded=0;whiteSpace=wrap;html=1;" vertex="1" parent="1">
          <mxGeometry x="610" y="600" width="20" height="20" as="geometry" />
        </mxCell>
        <mxCell id="VSTp_4rP8tjsOcfSHApI-566" value="" style="rounded=0;whiteSpace=wrap;html=1;" vertex="1" parent="1">
          <mxGeometry x="590" y="600" width="20" height="20" as="geometry" />
        </mxCell>
        <mxCell id="VSTp_4rP8tjsOcfSHApI-567" value="" style="rounded=0;whiteSpace=wrap;html=1;" vertex="1" parent="1">
          <mxGeometry x="90" y="620" width="20" height="20" as="geometry" />
        </mxCell>
        <mxCell id="VSTp_4rP8tjsOcfSHApI-568" value="" style="rounded=0;whiteSpace=wrap;html=1;" vertex="1" parent="1">
          <mxGeometry x="70" y="620" width="20" height="20" as="geometry" />
        </mxCell>
        <mxCell id="VSTp_4rP8tjsOcfSHApI-569" value="" style="rounded=0;whiteSpace=wrap;html=1;" vertex="1" parent="1">
          <mxGeometry x="130" y="620" width="20" height="20" as="geometry" />
        </mxCell>
        <mxCell id="VSTp_4rP8tjsOcfSHApI-570" value="" style="rounded=0;whiteSpace=wrap;html=1;" vertex="1" parent="1">
          <mxGeometry x="110" y="620" width="20" height="20" as="geometry" />
        </mxCell>
        <mxCell id="VSTp_4rP8tjsOcfSHApI-571" value="" style="rounded=0;whiteSpace=wrap;html=1;" vertex="1" parent="1">
          <mxGeometry x="170" y="620" width="20" height="20" as="geometry" />
        </mxCell>
        <mxCell id="VSTp_4rP8tjsOcfSHApI-572" value="" style="rounded=0;whiteSpace=wrap;html=1;" vertex="1" parent="1">
          <mxGeometry x="150" y="620" width="20" height="20" as="geometry" />
        </mxCell>
        <mxCell id="VSTp_4rP8tjsOcfSHApI-573" value="" style="rounded=0;whiteSpace=wrap;html=1;" vertex="1" parent="1">
          <mxGeometry x="210" y="620" width="20" height="20" as="geometry" />
        </mxCell>
        <mxCell id="VSTp_4rP8tjsOcfSHApI-574" value="" style="rounded=0;whiteSpace=wrap;html=1;" vertex="1" parent="1">
          <mxGeometry x="190" y="620" width="20" height="20" as="geometry" />
        </mxCell>
        <mxCell id="VSTp_4rP8tjsOcfSHApI-575" value="" style="rounded=0;whiteSpace=wrap;html=1;" vertex="1" parent="1">
          <mxGeometry x="250" y="620" width="20" height="20" as="geometry" />
        </mxCell>
        <mxCell id="VSTp_4rP8tjsOcfSHApI-576" value="" style="rounded=0;whiteSpace=wrap;html=1;" vertex="1" parent="1">
          <mxGeometry x="230" y="620" width="20" height="20" as="geometry" />
        </mxCell>
        <mxCell id="VSTp_4rP8tjsOcfSHApI-577" value="" style="rounded=0;whiteSpace=wrap;html=1;" vertex="1" parent="1">
          <mxGeometry x="290" y="620" width="20" height="20" as="geometry" />
        </mxCell>
        <mxCell id="VSTp_4rP8tjsOcfSHApI-578" value="" style="rounded=0;whiteSpace=wrap;html=1;" vertex="1" parent="1">
          <mxGeometry x="270" y="620" width="20" height="20" as="geometry" />
        </mxCell>
        <mxCell id="VSTp_4rP8tjsOcfSHApI-579" value="" style="rounded=0;whiteSpace=wrap;html=1;" vertex="1" parent="1">
          <mxGeometry x="330" y="620" width="20" height="20" as="geometry" />
        </mxCell>
        <mxCell id="VSTp_4rP8tjsOcfSHApI-580" value="" style="rounded=0;whiteSpace=wrap;html=1;" vertex="1" parent="1">
          <mxGeometry x="310" y="620" width="20" height="20" as="geometry" />
        </mxCell>
        <mxCell id="VSTp_4rP8tjsOcfSHApI-581" value="" style="rounded=0;whiteSpace=wrap;html=1;" vertex="1" parent="1">
          <mxGeometry x="370" y="620" width="20" height="20" as="geometry" />
        </mxCell>
        <mxCell id="VSTp_4rP8tjsOcfSHApI-582" value="" style="rounded=0;whiteSpace=wrap;html=1;" vertex="1" parent="1">
          <mxGeometry x="350" y="620" width="20" height="20" as="geometry" />
        </mxCell>
        <mxCell id="VSTp_4rP8tjsOcfSHApI-583" value="" style="rounded=0;whiteSpace=wrap;html=1;" vertex="1" parent="1">
          <mxGeometry x="410" y="620" width="20" height="20" as="geometry" />
        </mxCell>
        <mxCell id="VSTp_4rP8tjsOcfSHApI-584" value="" style="rounded=0;whiteSpace=wrap;html=1;" vertex="1" parent="1">
          <mxGeometry x="390" y="620" width="20" height="20" as="geometry" />
        </mxCell>
        <mxCell id="VSTp_4rP8tjsOcfSHApI-585" value="" style="rounded=0;whiteSpace=wrap;html=1;" vertex="1" parent="1">
          <mxGeometry x="450" y="620" width="20" height="20" as="geometry" />
        </mxCell>
        <mxCell id="VSTp_4rP8tjsOcfSHApI-586" value="" style="rounded=0;whiteSpace=wrap;html=1;" vertex="1" parent="1">
          <mxGeometry x="430" y="620" width="20" height="20" as="geometry" />
        </mxCell>
        <mxCell id="VSTp_4rP8tjsOcfSHApI-587" value="" style="rounded=0;whiteSpace=wrap;html=1;" vertex="1" parent="1">
          <mxGeometry x="490" y="620" width="20" height="20" as="geometry" />
        </mxCell>
        <mxCell id="VSTp_4rP8tjsOcfSHApI-588" value="" style="rounded=0;whiteSpace=wrap;html=1;" vertex="1" parent="1">
          <mxGeometry x="470" y="620" width="20" height="20" as="geometry" />
        </mxCell>
        <mxCell id="VSTp_4rP8tjsOcfSHApI-589" value="" style="rounded=0;whiteSpace=wrap;html=1;" vertex="1" parent="1">
          <mxGeometry x="530" y="620" width="20" height="20" as="geometry" />
        </mxCell>
        <mxCell id="VSTp_4rP8tjsOcfSHApI-590" value="" style="rounded=0;whiteSpace=wrap;html=1;" vertex="1" parent="1">
          <mxGeometry x="510" y="620" width="20" height="20" as="geometry" />
        </mxCell>
        <mxCell id="VSTp_4rP8tjsOcfSHApI-591" value="" style="rounded=0;whiteSpace=wrap;html=1;" vertex="1" parent="1">
          <mxGeometry x="570" y="620" width="20" height="20" as="geometry" />
        </mxCell>
        <mxCell id="VSTp_4rP8tjsOcfSHApI-592" value="" style="rounded=0;whiteSpace=wrap;html=1;" vertex="1" parent="1">
          <mxGeometry x="550" y="620" width="20" height="20" as="geometry" />
        </mxCell>
        <mxCell id="VSTp_4rP8tjsOcfSHApI-593" value="" style="rounded=0;whiteSpace=wrap;html=1;" vertex="1" parent="1">
          <mxGeometry x="610" y="620" width="20" height="20" as="geometry" />
        </mxCell>
        <mxCell id="VSTp_4rP8tjsOcfSHApI-594" value="" style="rounded=0;whiteSpace=wrap;html=1;" vertex="1" parent="1">
          <mxGeometry x="590" y="620" width="20" height="20" as="geometry" />
        </mxCell>
        <mxCell id="VSTp_4rP8tjsOcfSHApI-595" value="" style="rounded=0;whiteSpace=wrap;html=1;" vertex="1" parent="1">
          <mxGeometry x="90" y="640" width="20" height="20" as="geometry" />
        </mxCell>
        <mxCell id="VSTp_4rP8tjsOcfSHApI-596" value="" style="rounded=0;whiteSpace=wrap;html=1;" vertex="1" parent="1">
          <mxGeometry x="70" y="640" width="20" height="20" as="geometry" />
        </mxCell>
        <mxCell id="VSTp_4rP8tjsOcfSHApI-597" value="" style="rounded=0;whiteSpace=wrap;html=1;" vertex="1" parent="1">
          <mxGeometry x="130" y="640" width="20" height="20" as="geometry" />
        </mxCell>
        <mxCell id="VSTp_4rP8tjsOcfSHApI-598" value="" style="rounded=0;whiteSpace=wrap;html=1;" vertex="1" parent="1">
          <mxGeometry x="110" y="640" width="20" height="20" as="geometry" />
        </mxCell>
        <mxCell id="VSTp_4rP8tjsOcfSHApI-599" value="" style="rounded=0;whiteSpace=wrap;html=1;" vertex="1" parent="1">
          <mxGeometry x="170" y="640" width="20" height="20" as="geometry" />
        </mxCell>
        <mxCell id="VSTp_4rP8tjsOcfSHApI-600" value="" style="rounded=0;whiteSpace=wrap;html=1;" vertex="1" parent="1">
          <mxGeometry x="150" y="640" width="20" height="20" as="geometry" />
        </mxCell>
        <mxCell id="VSTp_4rP8tjsOcfSHApI-601" value="" style="rounded=0;whiteSpace=wrap;html=1;" vertex="1" parent="1">
          <mxGeometry x="210" y="640" width="20" height="20" as="geometry" />
        </mxCell>
        <mxCell id="VSTp_4rP8tjsOcfSHApI-602" value="" style="rounded=0;whiteSpace=wrap;html=1;" vertex="1" parent="1">
          <mxGeometry x="190" y="640" width="20" height="20" as="geometry" />
        </mxCell>
        <mxCell id="VSTp_4rP8tjsOcfSHApI-603" value="" style="rounded=0;whiteSpace=wrap;html=1;" vertex="1" parent="1">
          <mxGeometry x="250" y="640" width="20" height="20" as="geometry" />
        </mxCell>
        <mxCell id="VSTp_4rP8tjsOcfSHApI-604" value="" style="rounded=0;whiteSpace=wrap;html=1;" vertex="1" parent="1">
          <mxGeometry x="230" y="640" width="20" height="20" as="geometry" />
        </mxCell>
        <mxCell id="VSTp_4rP8tjsOcfSHApI-605" value="" style="rounded=0;whiteSpace=wrap;html=1;" vertex="1" parent="1">
          <mxGeometry x="290" y="640" width="20" height="20" as="geometry" />
        </mxCell>
        <mxCell id="VSTp_4rP8tjsOcfSHApI-606" value="" style="rounded=0;whiteSpace=wrap;html=1;" vertex="1" parent="1">
          <mxGeometry x="270" y="640" width="20" height="20" as="geometry" />
        </mxCell>
        <mxCell id="VSTp_4rP8tjsOcfSHApI-607" value="" style="rounded=0;whiteSpace=wrap;html=1;" vertex="1" parent="1">
          <mxGeometry x="330" y="640" width="20" height="20" as="geometry" />
        </mxCell>
        <mxCell id="VSTp_4rP8tjsOcfSHApI-608" value="" style="rounded=0;whiteSpace=wrap;html=1;" vertex="1" parent="1">
          <mxGeometry x="310" y="640" width="20" height="20" as="geometry" />
        </mxCell>
        <mxCell id="VSTp_4rP8tjsOcfSHApI-609" value="" style="rounded=0;whiteSpace=wrap;html=1;" vertex="1" parent="1">
          <mxGeometry x="370" y="640" width="20" height="20" as="geometry" />
        </mxCell>
        <mxCell id="VSTp_4rP8tjsOcfSHApI-610" value="" style="rounded=0;whiteSpace=wrap;html=1;" vertex="1" parent="1">
          <mxGeometry x="350" y="640" width="20" height="20" as="geometry" />
        </mxCell>
        <mxCell id="VSTp_4rP8tjsOcfSHApI-611" value="" style="rounded=0;whiteSpace=wrap;html=1;" vertex="1" parent="1">
          <mxGeometry x="410" y="640" width="20" height="20" as="geometry" />
        </mxCell>
        <mxCell id="VSTp_4rP8tjsOcfSHApI-612" value="" style="rounded=0;whiteSpace=wrap;html=1;" vertex="1" parent="1">
          <mxGeometry x="390" y="640" width="20" height="20" as="geometry" />
        </mxCell>
        <mxCell id="VSTp_4rP8tjsOcfSHApI-613" value="" style="rounded=0;whiteSpace=wrap;html=1;" vertex="1" parent="1">
          <mxGeometry x="450" y="640" width="20" height="20" as="geometry" />
        </mxCell>
        <mxCell id="VSTp_4rP8tjsOcfSHApI-614" value="" style="rounded=0;whiteSpace=wrap;html=1;" vertex="1" parent="1">
          <mxGeometry x="430" y="640" width="20" height="20" as="geometry" />
        </mxCell>
        <mxCell id="VSTp_4rP8tjsOcfSHApI-615" value="" style="rounded=0;whiteSpace=wrap;html=1;" vertex="1" parent="1">
          <mxGeometry x="490" y="640" width="20" height="20" as="geometry" />
        </mxCell>
        <mxCell id="VSTp_4rP8tjsOcfSHApI-616" value="" style="rounded=0;whiteSpace=wrap;html=1;" vertex="1" parent="1">
          <mxGeometry x="470" y="640" width="20" height="20" as="geometry" />
        </mxCell>
        <mxCell id="VSTp_4rP8tjsOcfSHApI-617" value="" style="rounded=0;whiteSpace=wrap;html=1;" vertex="1" parent="1">
          <mxGeometry x="530" y="640" width="20" height="20" as="geometry" />
        </mxCell>
        <mxCell id="VSTp_4rP8tjsOcfSHApI-618" value="" style="rounded=0;whiteSpace=wrap;html=1;" vertex="1" parent="1">
          <mxGeometry x="510" y="640" width="20" height="20" as="geometry" />
        </mxCell>
        <mxCell id="VSTp_4rP8tjsOcfSHApI-619" value="" style="rounded=0;whiteSpace=wrap;html=1;" vertex="1" parent="1">
          <mxGeometry x="570" y="640" width="20" height="20" as="geometry" />
        </mxCell>
        <mxCell id="VSTp_4rP8tjsOcfSHApI-620" value="" style="rounded=0;whiteSpace=wrap;html=1;" vertex="1" parent="1">
          <mxGeometry x="550" y="640" width="20" height="20" as="geometry" />
        </mxCell>
        <mxCell id="VSTp_4rP8tjsOcfSHApI-621" value="" style="rounded=0;whiteSpace=wrap;html=1;" vertex="1" parent="1">
          <mxGeometry x="610" y="640" width="20" height="20" as="geometry" />
        </mxCell>
        <mxCell id="VSTp_4rP8tjsOcfSHApI-622" value="" style="rounded=0;whiteSpace=wrap;html=1;" vertex="1" parent="1">
          <mxGeometry x="590" y="640" width="20" height="20" as="geometry" />
        </mxCell>
        <mxCell id="VSTp_4rP8tjsOcfSHApI-623" value="" style="rounded=0;whiteSpace=wrap;html=1;" vertex="1" parent="1">
          <mxGeometry x="90" y="660" width="20" height="20" as="geometry" />
        </mxCell>
        <mxCell id="VSTp_4rP8tjsOcfSHApI-624" value="" style="rounded=0;whiteSpace=wrap;html=1;" vertex="1" parent="1">
          <mxGeometry x="70" y="660" width="20" height="20" as="geometry" />
        </mxCell>
        <mxCell id="VSTp_4rP8tjsOcfSHApI-625" value="" style="rounded=0;whiteSpace=wrap;html=1;" vertex="1" parent="1">
          <mxGeometry x="130" y="660" width="20" height="20" as="geometry" />
        </mxCell>
        <mxCell id="VSTp_4rP8tjsOcfSHApI-626" value="" style="rounded=0;whiteSpace=wrap;html=1;" vertex="1" parent="1">
          <mxGeometry x="110" y="660" width="20" height="20" as="geometry" />
        </mxCell>
        <mxCell id="VSTp_4rP8tjsOcfSHApI-627" value="" style="rounded=0;whiteSpace=wrap;html=1;" vertex="1" parent="1">
          <mxGeometry x="170" y="660" width="20" height="20" as="geometry" />
        </mxCell>
        <mxCell id="VSTp_4rP8tjsOcfSHApI-628" value="" style="rounded=0;whiteSpace=wrap;html=1;" vertex="1" parent="1">
          <mxGeometry x="150" y="660" width="20" height="20" as="geometry" />
        </mxCell>
        <mxCell id="VSTp_4rP8tjsOcfSHApI-629" value="" style="rounded=0;whiteSpace=wrap;html=1;" vertex="1" parent="1">
          <mxGeometry x="210" y="660" width="20" height="20" as="geometry" />
        </mxCell>
        <mxCell id="VSTp_4rP8tjsOcfSHApI-630" value="" style="rounded=0;whiteSpace=wrap;html=1;" vertex="1" parent="1">
          <mxGeometry x="190" y="660" width="20" height="20" as="geometry" />
        </mxCell>
        <mxCell id="VSTp_4rP8tjsOcfSHApI-631" value="" style="rounded=0;whiteSpace=wrap;html=1;" vertex="1" parent="1">
          <mxGeometry x="250" y="660" width="20" height="20" as="geometry" />
        </mxCell>
        <mxCell id="VSTp_4rP8tjsOcfSHApI-632" value="" style="rounded=0;whiteSpace=wrap;html=1;" vertex="1" parent="1">
          <mxGeometry x="230" y="660" width="20" height="20" as="geometry" />
        </mxCell>
        <mxCell id="VSTp_4rP8tjsOcfSHApI-633" value="" style="rounded=0;whiteSpace=wrap;html=1;" vertex="1" parent="1">
          <mxGeometry x="290" y="660" width="20" height="20" as="geometry" />
        </mxCell>
        <mxCell id="VSTp_4rP8tjsOcfSHApI-634" value="" style="rounded=0;whiteSpace=wrap;html=1;" vertex="1" parent="1">
          <mxGeometry x="270" y="660" width="20" height="20" as="geometry" />
        </mxCell>
        <mxCell id="VSTp_4rP8tjsOcfSHApI-635" value="" style="rounded=0;whiteSpace=wrap;html=1;" vertex="1" parent="1">
          <mxGeometry x="330" y="660" width="20" height="20" as="geometry" />
        </mxCell>
        <mxCell id="VSTp_4rP8tjsOcfSHApI-636" value="" style="rounded=0;whiteSpace=wrap;html=1;" vertex="1" parent="1">
          <mxGeometry x="310" y="660" width="20" height="20" as="geometry" />
        </mxCell>
        <mxCell id="VSTp_4rP8tjsOcfSHApI-637" value="" style="rounded=0;whiteSpace=wrap;html=1;" vertex="1" parent="1">
          <mxGeometry x="370" y="660" width="20" height="20" as="geometry" />
        </mxCell>
        <mxCell id="VSTp_4rP8tjsOcfSHApI-638" value="" style="rounded=0;whiteSpace=wrap;html=1;" vertex="1" parent="1">
          <mxGeometry x="350" y="660" width="20" height="20" as="geometry" />
        </mxCell>
        <mxCell id="VSTp_4rP8tjsOcfSHApI-639" value="" style="rounded=0;whiteSpace=wrap;html=1;" vertex="1" parent="1">
          <mxGeometry x="410" y="660" width="20" height="20" as="geometry" />
        </mxCell>
        <mxCell id="VSTp_4rP8tjsOcfSHApI-640" value="" style="rounded=0;whiteSpace=wrap;html=1;" vertex="1" parent="1">
          <mxGeometry x="390" y="660" width="20" height="20" as="geometry" />
        </mxCell>
        <mxCell id="VSTp_4rP8tjsOcfSHApI-641" value="" style="rounded=0;whiteSpace=wrap;html=1;" vertex="1" parent="1">
          <mxGeometry x="450" y="660" width="20" height="20" as="geometry" />
        </mxCell>
        <mxCell id="VSTp_4rP8tjsOcfSHApI-642" value="" style="rounded=0;whiteSpace=wrap;html=1;" vertex="1" parent="1">
          <mxGeometry x="430" y="660" width="20" height="20" as="geometry" />
        </mxCell>
        <mxCell id="VSTp_4rP8tjsOcfSHApI-643" value="" style="rounded=0;whiteSpace=wrap;html=1;" vertex="1" parent="1">
          <mxGeometry x="490" y="660" width="20" height="20" as="geometry" />
        </mxCell>
        <mxCell id="VSTp_4rP8tjsOcfSHApI-644" value="" style="rounded=0;whiteSpace=wrap;html=1;" vertex="1" parent="1">
          <mxGeometry x="470" y="660" width="20" height="20" as="geometry" />
        </mxCell>
        <mxCell id="VSTp_4rP8tjsOcfSHApI-645" value="" style="rounded=0;whiteSpace=wrap;html=1;" vertex="1" parent="1">
          <mxGeometry x="530" y="660" width="20" height="20" as="geometry" />
        </mxCell>
        <mxCell id="VSTp_4rP8tjsOcfSHApI-646" value="" style="rounded=0;whiteSpace=wrap;html=1;" vertex="1" parent="1">
          <mxGeometry x="510" y="660" width="20" height="20" as="geometry" />
        </mxCell>
        <mxCell id="VSTp_4rP8tjsOcfSHApI-647" value="" style="rounded=0;whiteSpace=wrap;html=1;" vertex="1" parent="1">
          <mxGeometry x="570" y="660" width="20" height="20" as="geometry" />
        </mxCell>
        <mxCell id="VSTp_4rP8tjsOcfSHApI-648" value="" style="rounded=0;whiteSpace=wrap;html=1;" vertex="1" parent="1">
          <mxGeometry x="550" y="660" width="20" height="20" as="geometry" />
        </mxCell>
        <mxCell id="VSTp_4rP8tjsOcfSHApI-649" value="" style="rounded=0;whiteSpace=wrap;html=1;" vertex="1" parent="1">
          <mxGeometry x="610" y="660" width="20" height="20" as="geometry" />
        </mxCell>
        <mxCell id="VSTp_4rP8tjsOcfSHApI-650" value="" style="rounded=0;whiteSpace=wrap;html=1;" vertex="1" parent="1">
          <mxGeometry x="590" y="660" width="20" height="20" as="geometry" />
        </mxCell>
        <mxCell id="VSTp_4rP8tjsOcfSHApI-651" value="" style="rounded=0;whiteSpace=wrap;html=1;" vertex="1" parent="1">
          <mxGeometry x="90" y="680" width="20" height="20" as="geometry" />
        </mxCell>
        <mxCell id="VSTp_4rP8tjsOcfSHApI-652" value="" style="rounded=0;whiteSpace=wrap;html=1;" vertex="1" parent="1">
          <mxGeometry x="70" y="680" width="20" height="20" as="geometry" />
        </mxCell>
        <mxCell id="VSTp_4rP8tjsOcfSHApI-653" value="" style="rounded=0;whiteSpace=wrap;html=1;" vertex="1" parent="1">
          <mxGeometry x="130" y="680" width="20" height="20" as="geometry" />
        </mxCell>
        <mxCell id="VSTp_4rP8tjsOcfSHApI-654" value="" style="rounded=0;whiteSpace=wrap;html=1;" vertex="1" parent="1">
          <mxGeometry x="110" y="680" width="20" height="20" as="geometry" />
        </mxCell>
        <mxCell id="VSTp_4rP8tjsOcfSHApI-655" value="" style="rounded=0;whiteSpace=wrap;html=1;" vertex="1" parent="1">
          <mxGeometry x="170" y="680" width="20" height="20" as="geometry" />
        </mxCell>
        <mxCell id="VSTp_4rP8tjsOcfSHApI-656" value="" style="rounded=0;whiteSpace=wrap;html=1;" vertex="1" parent="1">
          <mxGeometry x="150" y="680" width="20" height="20" as="geometry" />
        </mxCell>
        <mxCell id="VSTp_4rP8tjsOcfSHApI-657" value="" style="rounded=0;whiteSpace=wrap;html=1;" vertex="1" parent="1">
          <mxGeometry x="210" y="680" width="20" height="20" as="geometry" />
        </mxCell>
        <mxCell id="VSTp_4rP8tjsOcfSHApI-658" value="" style="rounded=0;whiteSpace=wrap;html=1;" vertex="1" parent="1">
          <mxGeometry x="190" y="680" width="20" height="20" as="geometry" />
        </mxCell>
        <mxCell id="VSTp_4rP8tjsOcfSHApI-659" value="" style="rounded=0;whiteSpace=wrap;html=1;" vertex="1" parent="1">
          <mxGeometry x="250" y="680" width="20" height="20" as="geometry" />
        </mxCell>
        <mxCell id="VSTp_4rP8tjsOcfSHApI-660" value="" style="rounded=0;whiteSpace=wrap;html=1;" vertex="1" parent="1">
          <mxGeometry x="230" y="680" width="20" height="20" as="geometry" />
        </mxCell>
        <mxCell id="VSTp_4rP8tjsOcfSHApI-661" value="" style="rounded=0;whiteSpace=wrap;html=1;" vertex="1" parent="1">
          <mxGeometry x="290" y="680" width="20" height="20" as="geometry" />
        </mxCell>
        <mxCell id="VSTp_4rP8tjsOcfSHApI-662" value="" style="rounded=0;whiteSpace=wrap;html=1;" vertex="1" parent="1">
          <mxGeometry x="270" y="680" width="20" height="20" as="geometry" />
        </mxCell>
        <mxCell id="VSTp_4rP8tjsOcfSHApI-663" value="" style="rounded=0;whiteSpace=wrap;html=1;" vertex="1" parent="1">
          <mxGeometry x="330" y="680" width="20" height="20" as="geometry" />
        </mxCell>
        <mxCell id="VSTp_4rP8tjsOcfSHApI-664" value="" style="rounded=0;whiteSpace=wrap;html=1;" vertex="1" parent="1">
          <mxGeometry x="310" y="680" width="20" height="20" as="geometry" />
        </mxCell>
        <mxCell id="VSTp_4rP8tjsOcfSHApI-665" value="" style="rounded=0;whiteSpace=wrap;html=1;" vertex="1" parent="1">
          <mxGeometry x="370" y="680" width="20" height="20" as="geometry" />
        </mxCell>
        <mxCell id="VSTp_4rP8tjsOcfSHApI-666" value="" style="rounded=0;whiteSpace=wrap;html=1;" vertex="1" parent="1">
          <mxGeometry x="350" y="680" width="20" height="20" as="geometry" />
        </mxCell>
        <mxCell id="VSTp_4rP8tjsOcfSHApI-667" value="" style="rounded=0;whiteSpace=wrap;html=1;" vertex="1" parent="1">
          <mxGeometry x="410" y="680" width="20" height="20" as="geometry" />
        </mxCell>
        <mxCell id="VSTp_4rP8tjsOcfSHApI-668" value="" style="rounded=0;whiteSpace=wrap;html=1;" vertex="1" parent="1">
          <mxGeometry x="390" y="680" width="20" height="20" as="geometry" />
        </mxCell>
        <mxCell id="VSTp_4rP8tjsOcfSHApI-669" value="" style="rounded=0;whiteSpace=wrap;html=1;" vertex="1" parent="1">
          <mxGeometry x="450" y="680" width="20" height="20" as="geometry" />
        </mxCell>
        <mxCell id="VSTp_4rP8tjsOcfSHApI-670" value="" style="rounded=0;whiteSpace=wrap;html=1;" vertex="1" parent="1">
          <mxGeometry x="430" y="680" width="20" height="20" as="geometry" />
        </mxCell>
        <mxCell id="VSTp_4rP8tjsOcfSHApI-671" value="" style="rounded=0;whiteSpace=wrap;html=1;" vertex="1" parent="1">
          <mxGeometry x="490" y="680" width="20" height="20" as="geometry" />
        </mxCell>
        <mxCell id="VSTp_4rP8tjsOcfSHApI-672" value="" style="rounded=0;whiteSpace=wrap;html=1;" vertex="1" parent="1">
          <mxGeometry x="470" y="680" width="20" height="20" as="geometry" />
        </mxCell>
        <mxCell id="VSTp_4rP8tjsOcfSHApI-673" value="" style="rounded=0;whiteSpace=wrap;html=1;" vertex="1" parent="1">
          <mxGeometry x="530" y="680" width="20" height="20" as="geometry" />
        </mxCell>
        <mxCell id="VSTp_4rP8tjsOcfSHApI-674" value="" style="rounded=0;whiteSpace=wrap;html=1;" vertex="1" parent="1">
          <mxGeometry x="510" y="680" width="20" height="20" as="geometry" />
        </mxCell>
        <mxCell id="VSTp_4rP8tjsOcfSHApI-675" value="" style="rounded=0;whiteSpace=wrap;html=1;" vertex="1" parent="1">
          <mxGeometry x="570" y="680" width="20" height="20" as="geometry" />
        </mxCell>
        <mxCell id="VSTp_4rP8tjsOcfSHApI-676" value="" style="rounded=0;whiteSpace=wrap;html=1;" vertex="1" parent="1">
          <mxGeometry x="550" y="680" width="20" height="20" as="geometry" />
        </mxCell>
        <mxCell id="VSTp_4rP8tjsOcfSHApI-677" value="" style="rounded=0;whiteSpace=wrap;html=1;" vertex="1" parent="1">
          <mxGeometry x="610" y="680" width="20" height="20" as="geometry" />
        </mxCell>
        <mxCell id="VSTp_4rP8tjsOcfSHApI-678" value="" style="rounded=0;whiteSpace=wrap;html=1;" vertex="1" parent="1">
          <mxGeometry x="590" y="680" width="20" height="20" as="geometry" />
        </mxCell>
        <mxCell id="VSTp_4rP8tjsOcfSHApI-679" value="" style="rounded=0;whiteSpace=wrap;html=1;" vertex="1" parent="1">
          <mxGeometry x="90" y="700" width="20" height="20" as="geometry" />
        </mxCell>
        <mxCell id="VSTp_4rP8tjsOcfSHApI-680" value="" style="rounded=0;whiteSpace=wrap;html=1;" vertex="1" parent="1">
          <mxGeometry x="70" y="700" width="20" height="20" as="geometry" />
        </mxCell>
        <mxCell id="VSTp_4rP8tjsOcfSHApI-681" value="" style="rounded=0;whiteSpace=wrap;html=1;" vertex="1" parent="1">
          <mxGeometry x="130" y="700" width="20" height="20" as="geometry" />
        </mxCell>
        <mxCell id="VSTp_4rP8tjsOcfSHApI-682" value="" style="rounded=0;whiteSpace=wrap;html=1;" vertex="1" parent="1">
          <mxGeometry x="110" y="700" width="20" height="20" as="geometry" />
        </mxCell>
        <mxCell id="VSTp_4rP8tjsOcfSHApI-683" value="" style="rounded=0;whiteSpace=wrap;html=1;" vertex="1" parent="1">
          <mxGeometry x="170" y="700" width="20" height="20" as="geometry" />
        </mxCell>
        <mxCell id="VSTp_4rP8tjsOcfSHApI-684" value="" style="rounded=0;whiteSpace=wrap;html=1;" vertex="1" parent="1">
          <mxGeometry x="150" y="700" width="20" height="20" as="geometry" />
        </mxCell>
        <mxCell id="VSTp_4rP8tjsOcfSHApI-685" value="" style="rounded=0;whiteSpace=wrap;html=1;" vertex="1" parent="1">
          <mxGeometry x="210" y="700" width="20" height="20" as="geometry" />
        </mxCell>
        <mxCell id="VSTp_4rP8tjsOcfSHApI-686" value="" style="rounded=0;whiteSpace=wrap;html=1;" vertex="1" parent="1">
          <mxGeometry x="190" y="700" width="20" height="20" as="geometry" />
        </mxCell>
        <mxCell id="VSTp_4rP8tjsOcfSHApI-687" value="" style="rounded=0;whiteSpace=wrap;html=1;" vertex="1" parent="1">
          <mxGeometry x="250" y="700" width="20" height="20" as="geometry" />
        </mxCell>
        <mxCell id="VSTp_4rP8tjsOcfSHApI-688" value="" style="rounded=0;whiteSpace=wrap;html=1;" vertex="1" parent="1">
          <mxGeometry x="230" y="700" width="20" height="20" as="geometry" />
        </mxCell>
        <mxCell id="VSTp_4rP8tjsOcfSHApI-689" value="" style="rounded=0;whiteSpace=wrap;html=1;" vertex="1" parent="1">
          <mxGeometry x="290" y="700" width="20" height="20" as="geometry" />
        </mxCell>
        <mxCell id="VSTp_4rP8tjsOcfSHApI-690" value="" style="rounded=0;whiteSpace=wrap;html=1;" vertex="1" parent="1">
          <mxGeometry x="270" y="700" width="20" height="20" as="geometry" />
        </mxCell>
        <mxCell id="VSTp_4rP8tjsOcfSHApI-691" value="" style="rounded=0;whiteSpace=wrap;html=1;" vertex="1" parent="1">
          <mxGeometry x="330" y="700" width="20" height="20" as="geometry" />
        </mxCell>
        <mxCell id="VSTp_4rP8tjsOcfSHApI-692" value="" style="rounded=0;whiteSpace=wrap;html=1;" vertex="1" parent="1">
          <mxGeometry x="310" y="700" width="20" height="20" as="geometry" />
        </mxCell>
        <mxCell id="VSTp_4rP8tjsOcfSHApI-693" value="" style="rounded=0;whiteSpace=wrap;html=1;" vertex="1" parent="1">
          <mxGeometry x="370" y="700" width="20" height="20" as="geometry" />
        </mxCell>
        <mxCell id="VSTp_4rP8tjsOcfSHApI-694" value="" style="rounded=0;whiteSpace=wrap;html=1;" vertex="1" parent="1">
          <mxGeometry x="350" y="700" width="20" height="20" as="geometry" />
        </mxCell>
        <mxCell id="VSTp_4rP8tjsOcfSHApI-695" value="" style="rounded=0;whiteSpace=wrap;html=1;" vertex="1" parent="1">
          <mxGeometry x="410" y="700" width="20" height="20" as="geometry" />
        </mxCell>
        <mxCell id="VSTp_4rP8tjsOcfSHApI-696" value="" style="rounded=0;whiteSpace=wrap;html=1;" vertex="1" parent="1">
          <mxGeometry x="390" y="700" width="20" height="20" as="geometry" />
        </mxCell>
        <mxCell id="VSTp_4rP8tjsOcfSHApI-697" value="" style="rounded=0;whiteSpace=wrap;html=1;" vertex="1" parent="1">
          <mxGeometry x="450" y="700" width="20" height="20" as="geometry" />
        </mxCell>
        <mxCell id="VSTp_4rP8tjsOcfSHApI-698" value="" style="rounded=0;whiteSpace=wrap;html=1;" vertex="1" parent="1">
          <mxGeometry x="430" y="700" width="20" height="20" as="geometry" />
        </mxCell>
        <mxCell id="VSTp_4rP8tjsOcfSHApI-699" value="" style="rounded=0;whiteSpace=wrap;html=1;" vertex="1" parent="1">
          <mxGeometry x="490" y="700" width="20" height="20" as="geometry" />
        </mxCell>
        <mxCell id="VSTp_4rP8tjsOcfSHApI-700" value="" style="rounded=0;whiteSpace=wrap;html=1;" vertex="1" parent="1">
          <mxGeometry x="470" y="700" width="20" height="20" as="geometry" />
        </mxCell>
        <mxCell id="VSTp_4rP8tjsOcfSHApI-701" value="" style="rounded=0;whiteSpace=wrap;html=1;" vertex="1" parent="1">
          <mxGeometry x="530" y="700" width="20" height="20" as="geometry" />
        </mxCell>
        <mxCell id="VSTp_4rP8tjsOcfSHApI-702" value="" style="rounded=0;whiteSpace=wrap;html=1;" vertex="1" parent="1">
          <mxGeometry x="510" y="700" width="20" height="20" as="geometry" />
        </mxCell>
        <mxCell id="VSTp_4rP8tjsOcfSHApI-703" value="" style="rounded=0;whiteSpace=wrap;html=1;" vertex="1" parent="1">
          <mxGeometry x="570" y="700" width="20" height="20" as="geometry" />
        </mxCell>
        <mxCell id="VSTp_4rP8tjsOcfSHApI-704" value="" style="rounded=0;whiteSpace=wrap;html=1;" vertex="1" parent="1">
          <mxGeometry x="550" y="700" width="20" height="20" as="geometry" />
        </mxCell>
        <mxCell id="VSTp_4rP8tjsOcfSHApI-705" value="" style="rounded=0;whiteSpace=wrap;html=1;" vertex="1" parent="1">
          <mxGeometry x="610" y="700" width="20" height="20" as="geometry" />
        </mxCell>
        <mxCell id="VSTp_4rP8tjsOcfSHApI-706" value="" style="rounded=0;whiteSpace=wrap;html=1;" vertex="1" parent="1">
          <mxGeometry x="590" y="700" width="20" height="20" as="geometry" />
        </mxCell>
        <mxCell id="VSTp_4rP8tjsOcfSHApI-707" value="" style="rounded=0;whiteSpace=wrap;html=1;" vertex="1" parent="1">
          <mxGeometry x="90" y="720" width="20" height="20" as="geometry" />
        </mxCell>
        <mxCell id="VSTp_4rP8tjsOcfSHApI-708" value="" style="rounded=0;whiteSpace=wrap;html=1;" vertex="1" parent="1">
          <mxGeometry x="70" y="720" width="20" height="20" as="geometry" />
        </mxCell>
        <mxCell id="VSTp_4rP8tjsOcfSHApI-709" value="" style="rounded=0;whiteSpace=wrap;html=1;" vertex="1" parent="1">
          <mxGeometry x="130" y="720" width="20" height="20" as="geometry" />
        </mxCell>
        <mxCell id="VSTp_4rP8tjsOcfSHApI-710" value="" style="rounded=0;whiteSpace=wrap;html=1;" vertex="1" parent="1">
          <mxGeometry x="110" y="720" width="20" height="20" as="geometry" />
        </mxCell>
        <mxCell id="VSTp_4rP8tjsOcfSHApI-711" value="" style="rounded=0;whiteSpace=wrap;html=1;" vertex="1" parent="1">
          <mxGeometry x="170" y="720" width="20" height="20" as="geometry" />
        </mxCell>
        <mxCell id="VSTp_4rP8tjsOcfSHApI-712" value="" style="rounded=0;whiteSpace=wrap;html=1;" vertex="1" parent="1">
          <mxGeometry x="150" y="720" width="20" height="20" as="geometry" />
        </mxCell>
        <mxCell id="VSTp_4rP8tjsOcfSHApI-713" value="" style="rounded=0;whiteSpace=wrap;html=1;" vertex="1" parent="1">
          <mxGeometry x="210" y="720" width="20" height="20" as="geometry" />
        </mxCell>
        <mxCell id="VSTp_4rP8tjsOcfSHApI-714" value="" style="rounded=0;whiteSpace=wrap;html=1;" vertex="1" parent="1">
          <mxGeometry x="190" y="720" width="20" height="20" as="geometry" />
        </mxCell>
        <mxCell id="VSTp_4rP8tjsOcfSHApI-715" value="" style="rounded=0;whiteSpace=wrap;html=1;" vertex="1" parent="1">
          <mxGeometry x="250" y="720" width="20" height="20" as="geometry" />
        </mxCell>
        <mxCell id="VSTp_4rP8tjsOcfSHApI-716" value="" style="rounded=0;whiteSpace=wrap;html=1;" vertex="1" parent="1">
          <mxGeometry x="230" y="720" width="20" height="20" as="geometry" />
        </mxCell>
        <mxCell id="VSTp_4rP8tjsOcfSHApI-717" value="" style="rounded=0;whiteSpace=wrap;html=1;" vertex="1" parent="1">
          <mxGeometry x="290" y="720" width="20" height="20" as="geometry" />
        </mxCell>
        <mxCell id="VSTp_4rP8tjsOcfSHApI-718" value="" style="rounded=0;whiteSpace=wrap;html=1;" vertex="1" parent="1">
          <mxGeometry x="270" y="720" width="20" height="20" as="geometry" />
        </mxCell>
        <mxCell id="VSTp_4rP8tjsOcfSHApI-719" value="" style="rounded=0;whiteSpace=wrap;html=1;" vertex="1" parent="1">
          <mxGeometry x="330" y="720" width="20" height="20" as="geometry" />
        </mxCell>
        <mxCell id="VSTp_4rP8tjsOcfSHApI-720" value="" style="rounded=0;whiteSpace=wrap;html=1;" vertex="1" parent="1">
          <mxGeometry x="310" y="720" width="20" height="20" as="geometry" />
        </mxCell>
        <mxCell id="VSTp_4rP8tjsOcfSHApI-721" value="" style="rounded=0;whiteSpace=wrap;html=1;" vertex="1" parent="1">
          <mxGeometry x="370" y="720" width="20" height="20" as="geometry" />
        </mxCell>
        <mxCell id="VSTp_4rP8tjsOcfSHApI-722" value="" style="rounded=0;whiteSpace=wrap;html=1;" vertex="1" parent="1">
          <mxGeometry x="350" y="720" width="20" height="20" as="geometry" />
        </mxCell>
        <mxCell id="VSTp_4rP8tjsOcfSHApI-723" value="" style="rounded=0;whiteSpace=wrap;html=1;" vertex="1" parent="1">
          <mxGeometry x="410" y="720" width="20" height="20" as="geometry" />
        </mxCell>
        <mxCell id="VSTp_4rP8tjsOcfSHApI-724" value="" style="rounded=0;whiteSpace=wrap;html=1;" vertex="1" parent="1">
          <mxGeometry x="390" y="720" width="20" height="20" as="geometry" />
        </mxCell>
        <mxCell id="VSTp_4rP8tjsOcfSHApI-725" value="" style="rounded=0;whiteSpace=wrap;html=1;" vertex="1" parent="1">
          <mxGeometry x="450" y="720" width="20" height="20" as="geometry" />
        </mxCell>
        <mxCell id="VSTp_4rP8tjsOcfSHApI-726" value="" style="rounded=0;whiteSpace=wrap;html=1;" vertex="1" parent="1">
          <mxGeometry x="430" y="720" width="20" height="20" as="geometry" />
        </mxCell>
        <mxCell id="VSTp_4rP8tjsOcfSHApI-727" value="" style="rounded=0;whiteSpace=wrap;html=1;" vertex="1" parent="1">
          <mxGeometry x="490" y="720" width="20" height="20" as="geometry" />
        </mxCell>
        <mxCell id="VSTp_4rP8tjsOcfSHApI-728" value="" style="rounded=0;whiteSpace=wrap;html=1;" vertex="1" parent="1">
          <mxGeometry x="470" y="720" width="20" height="20" as="geometry" />
        </mxCell>
        <mxCell id="VSTp_4rP8tjsOcfSHApI-729" value="" style="rounded=0;whiteSpace=wrap;html=1;" vertex="1" parent="1">
          <mxGeometry x="530" y="720" width="20" height="20" as="geometry" />
        </mxCell>
        <mxCell id="VSTp_4rP8tjsOcfSHApI-730" value="" style="rounded=0;whiteSpace=wrap;html=1;" vertex="1" parent="1">
          <mxGeometry x="510" y="720" width="20" height="20" as="geometry" />
        </mxCell>
        <mxCell id="VSTp_4rP8tjsOcfSHApI-731" value="" style="rounded=0;whiteSpace=wrap;html=1;" vertex="1" parent="1">
          <mxGeometry x="570" y="720" width="20" height="20" as="geometry" />
        </mxCell>
        <mxCell id="VSTp_4rP8tjsOcfSHApI-732" value="" style="rounded=0;whiteSpace=wrap;html=1;" vertex="1" parent="1">
          <mxGeometry x="550" y="720" width="20" height="20" as="geometry" />
        </mxCell>
        <mxCell id="VSTp_4rP8tjsOcfSHApI-733" value="" style="rounded=0;whiteSpace=wrap;html=1;" vertex="1" parent="1">
          <mxGeometry x="610" y="720" width="20" height="20" as="geometry" />
        </mxCell>
        <mxCell id="VSTp_4rP8tjsOcfSHApI-734" value="" style="rounded=0;whiteSpace=wrap;html=1;" vertex="1" parent="1">
          <mxGeometry x="590" y="720" width="20" height="20" as="geometry" />
        </mxCell>
        <mxCell id="VSTp_4rP8tjsOcfSHApI-735" value="" style="rounded=0;whiteSpace=wrap;html=1;" vertex="1" parent="1">
          <mxGeometry x="90" y="740" width="20" height="20" as="geometry" />
        </mxCell>
        <mxCell id="VSTp_4rP8tjsOcfSHApI-736" value="" style="rounded=0;whiteSpace=wrap;html=1;" vertex="1" parent="1">
          <mxGeometry x="70" y="740" width="20" height="20" as="geometry" />
        </mxCell>
        <mxCell id="VSTp_4rP8tjsOcfSHApI-737" value="" style="rounded=0;whiteSpace=wrap;html=1;" vertex="1" parent="1">
          <mxGeometry x="130" y="740" width="20" height="20" as="geometry" />
        </mxCell>
        <mxCell id="VSTp_4rP8tjsOcfSHApI-738" value="" style="rounded=0;whiteSpace=wrap;html=1;" vertex="1" parent="1">
          <mxGeometry x="110" y="740" width="20" height="20" as="geometry" />
        </mxCell>
        <mxCell id="VSTp_4rP8tjsOcfSHApI-739" value="" style="rounded=0;whiteSpace=wrap;html=1;" vertex="1" parent="1">
          <mxGeometry x="170" y="740" width="20" height="20" as="geometry" />
        </mxCell>
        <mxCell id="VSTp_4rP8tjsOcfSHApI-740" value="" style="rounded=0;whiteSpace=wrap;html=1;" vertex="1" parent="1">
          <mxGeometry x="150" y="740" width="20" height="20" as="geometry" />
        </mxCell>
        <mxCell id="VSTp_4rP8tjsOcfSHApI-741" value="" style="rounded=0;whiteSpace=wrap;html=1;" vertex="1" parent="1">
          <mxGeometry x="210" y="740" width="20" height="20" as="geometry" />
        </mxCell>
        <mxCell id="VSTp_4rP8tjsOcfSHApI-742" value="" style="rounded=0;whiteSpace=wrap;html=1;" vertex="1" parent="1">
          <mxGeometry x="190" y="740" width="20" height="20" as="geometry" />
        </mxCell>
        <mxCell id="VSTp_4rP8tjsOcfSHApI-743" value="" style="rounded=0;whiteSpace=wrap;html=1;" vertex="1" parent="1">
          <mxGeometry x="250" y="740" width="20" height="20" as="geometry" />
        </mxCell>
        <mxCell id="VSTp_4rP8tjsOcfSHApI-744" value="" style="rounded=0;whiteSpace=wrap;html=1;" vertex="1" parent="1">
          <mxGeometry x="230" y="740" width="20" height="20" as="geometry" />
        </mxCell>
        <mxCell id="VSTp_4rP8tjsOcfSHApI-745" value="" style="rounded=0;whiteSpace=wrap;html=1;" vertex="1" parent="1">
          <mxGeometry x="290" y="740" width="20" height="20" as="geometry" />
        </mxCell>
        <mxCell id="VSTp_4rP8tjsOcfSHApI-746" value="" style="rounded=0;whiteSpace=wrap;html=1;" vertex="1" parent="1">
          <mxGeometry x="270" y="740" width="20" height="20" as="geometry" />
        </mxCell>
        <mxCell id="VSTp_4rP8tjsOcfSHApI-747" value="" style="rounded=0;whiteSpace=wrap;html=1;" vertex="1" parent="1">
          <mxGeometry x="330" y="740" width="20" height="20" as="geometry" />
        </mxCell>
        <mxCell id="VSTp_4rP8tjsOcfSHApI-748" value="" style="rounded=0;whiteSpace=wrap;html=1;" vertex="1" parent="1">
          <mxGeometry x="310" y="740" width="20" height="20" as="geometry" />
        </mxCell>
        <mxCell id="VSTp_4rP8tjsOcfSHApI-749" value="" style="rounded=0;whiteSpace=wrap;html=1;" vertex="1" parent="1">
          <mxGeometry x="370" y="740" width="20" height="20" as="geometry" />
        </mxCell>
        <mxCell id="VSTp_4rP8tjsOcfSHApI-750" value="" style="rounded=0;whiteSpace=wrap;html=1;" vertex="1" parent="1">
          <mxGeometry x="350" y="740" width="20" height="20" as="geometry" />
        </mxCell>
        <mxCell id="VSTp_4rP8tjsOcfSHApI-751" value="" style="rounded=0;whiteSpace=wrap;html=1;" vertex="1" parent="1">
          <mxGeometry x="410" y="740" width="20" height="20" as="geometry" />
        </mxCell>
        <mxCell id="VSTp_4rP8tjsOcfSHApI-752" value="" style="rounded=0;whiteSpace=wrap;html=1;" vertex="1" parent="1">
          <mxGeometry x="390" y="740" width="20" height="20" as="geometry" />
        </mxCell>
        <mxCell id="VSTp_4rP8tjsOcfSHApI-753" value="" style="rounded=0;whiteSpace=wrap;html=1;" vertex="1" parent="1">
          <mxGeometry x="450" y="740" width="20" height="20" as="geometry" />
        </mxCell>
        <mxCell id="VSTp_4rP8tjsOcfSHApI-754" value="" style="rounded=0;whiteSpace=wrap;html=1;" vertex="1" parent="1">
          <mxGeometry x="430" y="740" width="20" height="20" as="geometry" />
        </mxCell>
        <mxCell id="VSTp_4rP8tjsOcfSHApI-755" value="" style="rounded=0;whiteSpace=wrap;html=1;" vertex="1" parent="1">
          <mxGeometry x="490" y="740" width="20" height="20" as="geometry" />
        </mxCell>
        <mxCell id="VSTp_4rP8tjsOcfSHApI-756" value="" style="rounded=0;whiteSpace=wrap;html=1;" vertex="1" parent="1">
          <mxGeometry x="470" y="740" width="20" height="20" as="geometry" />
        </mxCell>
        <mxCell id="VSTp_4rP8tjsOcfSHApI-757" value="" style="rounded=0;whiteSpace=wrap;html=1;" vertex="1" parent="1">
          <mxGeometry x="530" y="740" width="20" height="20" as="geometry" />
        </mxCell>
        <mxCell id="VSTp_4rP8tjsOcfSHApI-758" value="" style="rounded=0;whiteSpace=wrap;html=1;" vertex="1" parent="1">
          <mxGeometry x="510" y="740" width="20" height="20" as="geometry" />
        </mxCell>
        <mxCell id="VSTp_4rP8tjsOcfSHApI-759" value="" style="rounded=0;whiteSpace=wrap;html=1;" vertex="1" parent="1">
          <mxGeometry x="570" y="740" width="20" height="20" as="geometry" />
        </mxCell>
        <mxCell id="VSTp_4rP8tjsOcfSHApI-760" value="" style="rounded=0;whiteSpace=wrap;html=1;" vertex="1" parent="1">
          <mxGeometry x="550" y="740" width="20" height="20" as="geometry" />
        </mxCell>
        <mxCell id="VSTp_4rP8tjsOcfSHApI-761" value="" style="rounded=0;whiteSpace=wrap;html=1;" vertex="1" parent="1">
          <mxGeometry x="610" y="740" width="20" height="20" as="geometry" />
        </mxCell>
        <mxCell id="VSTp_4rP8tjsOcfSHApI-762" value="" style="rounded=0;whiteSpace=wrap;html=1;" vertex="1" parent="1">
          <mxGeometry x="590" y="740" width="20" height="20" as="geometry" />
        </mxCell>
        <mxCell id="VSTp_4rP8tjsOcfSHApI-763" value="" style="rounded=0;whiteSpace=wrap;html=1;" vertex="1" parent="1">
          <mxGeometry x="90" y="760" width="20" height="20" as="geometry" />
        </mxCell>
        <mxCell id="VSTp_4rP8tjsOcfSHApI-764" value="" style="rounded=0;whiteSpace=wrap;html=1;" vertex="1" parent="1">
          <mxGeometry x="70" y="760" width="20" height="20" as="geometry" />
        </mxCell>
        <mxCell id="VSTp_4rP8tjsOcfSHApI-765" value="" style="rounded=0;whiteSpace=wrap;html=1;" vertex="1" parent="1">
          <mxGeometry x="130" y="760" width="20" height="20" as="geometry" />
        </mxCell>
        <mxCell id="VSTp_4rP8tjsOcfSHApI-766" value="" style="rounded=0;whiteSpace=wrap;html=1;" vertex="1" parent="1">
          <mxGeometry x="110" y="760" width="20" height="20" as="geometry" />
        </mxCell>
        <mxCell id="VSTp_4rP8tjsOcfSHApI-767" value="" style="rounded=0;whiteSpace=wrap;html=1;" vertex="1" parent="1">
          <mxGeometry x="170" y="760" width="20" height="20" as="geometry" />
        </mxCell>
        <mxCell id="VSTp_4rP8tjsOcfSHApI-768" value="" style="rounded=0;whiteSpace=wrap;html=1;" vertex="1" parent="1">
          <mxGeometry x="150" y="760" width="20" height="20" as="geometry" />
        </mxCell>
        <mxCell id="VSTp_4rP8tjsOcfSHApI-769" value="" style="rounded=0;whiteSpace=wrap;html=1;" vertex="1" parent="1">
          <mxGeometry x="210" y="760" width="20" height="20" as="geometry" />
        </mxCell>
        <mxCell id="VSTp_4rP8tjsOcfSHApI-770" value="" style="rounded=0;whiteSpace=wrap;html=1;" vertex="1" parent="1">
          <mxGeometry x="190" y="760" width="20" height="20" as="geometry" />
        </mxCell>
        <mxCell id="VSTp_4rP8tjsOcfSHApI-771" value="" style="rounded=0;whiteSpace=wrap;html=1;" vertex="1" parent="1">
          <mxGeometry x="250" y="760" width="20" height="20" as="geometry" />
        </mxCell>
        <mxCell id="VSTp_4rP8tjsOcfSHApI-772" value="" style="rounded=0;whiteSpace=wrap;html=1;" vertex="1" parent="1">
          <mxGeometry x="230" y="760" width="20" height="20" as="geometry" />
        </mxCell>
        <mxCell id="VSTp_4rP8tjsOcfSHApI-773" value="" style="rounded=0;whiteSpace=wrap;html=1;" vertex="1" parent="1">
          <mxGeometry x="290" y="760" width="20" height="20" as="geometry" />
        </mxCell>
        <mxCell id="VSTp_4rP8tjsOcfSHApI-774" value="" style="rounded=0;whiteSpace=wrap;html=1;" vertex="1" parent="1">
          <mxGeometry x="270" y="760" width="20" height="20" as="geometry" />
        </mxCell>
        <mxCell id="VSTp_4rP8tjsOcfSHApI-775" value="" style="rounded=0;whiteSpace=wrap;html=1;" vertex="1" parent="1">
          <mxGeometry x="330" y="760" width="20" height="20" as="geometry" />
        </mxCell>
        <mxCell id="VSTp_4rP8tjsOcfSHApI-776" value="" style="rounded=0;whiteSpace=wrap;html=1;" vertex="1" parent="1">
          <mxGeometry x="310" y="760" width="20" height="20" as="geometry" />
        </mxCell>
        <mxCell id="VSTp_4rP8tjsOcfSHApI-777" value="" style="rounded=0;whiteSpace=wrap;html=1;" vertex="1" parent="1">
          <mxGeometry x="370" y="760" width="20" height="20" as="geometry" />
        </mxCell>
        <mxCell id="VSTp_4rP8tjsOcfSHApI-778" value="" style="rounded=0;whiteSpace=wrap;html=1;" vertex="1" parent="1">
          <mxGeometry x="350" y="760" width="20" height="20" as="geometry" />
        </mxCell>
        <mxCell id="VSTp_4rP8tjsOcfSHApI-779" value="" style="rounded=0;whiteSpace=wrap;html=1;" vertex="1" parent="1">
          <mxGeometry x="410" y="760" width="20" height="20" as="geometry" />
        </mxCell>
        <mxCell id="VSTp_4rP8tjsOcfSHApI-780" value="" style="rounded=0;whiteSpace=wrap;html=1;" vertex="1" parent="1">
          <mxGeometry x="390" y="760" width="20" height="20" as="geometry" />
        </mxCell>
        <mxCell id="VSTp_4rP8tjsOcfSHApI-781" value="" style="rounded=0;whiteSpace=wrap;html=1;" vertex="1" parent="1">
          <mxGeometry x="450" y="760" width="20" height="20" as="geometry" />
        </mxCell>
        <mxCell id="VSTp_4rP8tjsOcfSHApI-782" value="" style="rounded=0;whiteSpace=wrap;html=1;" vertex="1" parent="1">
          <mxGeometry x="430" y="760" width="20" height="20" as="geometry" />
        </mxCell>
        <mxCell id="VSTp_4rP8tjsOcfSHApI-783" value="" style="rounded=0;whiteSpace=wrap;html=1;" vertex="1" parent="1">
          <mxGeometry x="490" y="760" width="20" height="20" as="geometry" />
        </mxCell>
        <mxCell id="VSTp_4rP8tjsOcfSHApI-784" value="" style="rounded=0;whiteSpace=wrap;html=1;" vertex="1" parent="1">
          <mxGeometry x="470" y="760" width="20" height="20" as="geometry" />
        </mxCell>
        <mxCell id="VSTp_4rP8tjsOcfSHApI-785" value="" style="rounded=0;whiteSpace=wrap;html=1;" vertex="1" parent="1">
          <mxGeometry x="530" y="760" width="20" height="20" as="geometry" />
        </mxCell>
        <mxCell id="VSTp_4rP8tjsOcfSHApI-786" value="" style="rounded=0;whiteSpace=wrap;html=1;" vertex="1" parent="1">
          <mxGeometry x="510" y="760" width="20" height="20" as="geometry" />
        </mxCell>
        <mxCell id="VSTp_4rP8tjsOcfSHApI-787" value="" style="rounded=0;whiteSpace=wrap;html=1;" vertex="1" parent="1">
          <mxGeometry x="570" y="760" width="20" height="20" as="geometry" />
        </mxCell>
        <mxCell id="VSTp_4rP8tjsOcfSHApI-788" value="" style="rounded=0;whiteSpace=wrap;html=1;" vertex="1" parent="1">
          <mxGeometry x="550" y="760" width="20" height="20" as="geometry" />
        </mxCell>
        <mxCell id="VSTp_4rP8tjsOcfSHApI-789" value="" style="rounded=0;whiteSpace=wrap;html=1;" vertex="1" parent="1">
          <mxGeometry x="610" y="760" width="20" height="20" as="geometry" />
        </mxCell>
        <mxCell id="VSTp_4rP8tjsOcfSHApI-790" value="" style="rounded=0;whiteSpace=wrap;html=1;" vertex="1" parent="1">
          <mxGeometry x="590" y="760" width="20" height="20" as="geometry" />
        </mxCell>
        <mxCell id="VSTp_4rP8tjsOcfSHApI-791" value="" style="rounded=0;whiteSpace=wrap;html=1;" vertex="1" parent="1">
          <mxGeometry x="90" y="780" width="20" height="20" as="geometry" />
        </mxCell>
        <mxCell id="VSTp_4rP8tjsOcfSHApI-792" value="" style="rounded=0;whiteSpace=wrap;html=1;" vertex="1" parent="1">
          <mxGeometry x="70" y="780" width="20" height="20" as="geometry" />
        </mxCell>
        <mxCell id="VSTp_4rP8tjsOcfSHApI-793" value="" style="rounded=0;whiteSpace=wrap;html=1;" vertex="1" parent="1">
          <mxGeometry x="130" y="780" width="20" height="20" as="geometry" />
        </mxCell>
        <mxCell id="VSTp_4rP8tjsOcfSHApI-794" value="" style="rounded=0;whiteSpace=wrap;html=1;" vertex="1" parent="1">
          <mxGeometry x="110" y="780" width="20" height="20" as="geometry" />
        </mxCell>
        <mxCell id="VSTp_4rP8tjsOcfSHApI-795" value="" style="rounded=0;whiteSpace=wrap;html=1;" vertex="1" parent="1">
          <mxGeometry x="170" y="780" width="20" height="20" as="geometry" />
        </mxCell>
        <mxCell id="VSTp_4rP8tjsOcfSHApI-796" value="" style="rounded=0;whiteSpace=wrap;html=1;" vertex="1" parent="1">
          <mxGeometry x="150" y="780" width="20" height="20" as="geometry" />
        </mxCell>
        <mxCell id="VSTp_4rP8tjsOcfSHApI-797" value="" style="rounded=0;whiteSpace=wrap;html=1;" vertex="1" parent="1">
          <mxGeometry x="210" y="780" width="20" height="20" as="geometry" />
        </mxCell>
        <mxCell id="VSTp_4rP8tjsOcfSHApI-798" value="" style="rounded=0;whiteSpace=wrap;html=1;" vertex="1" parent="1">
          <mxGeometry x="190" y="780" width="20" height="20" as="geometry" />
        </mxCell>
        <mxCell id="VSTp_4rP8tjsOcfSHApI-799" value="" style="rounded=0;whiteSpace=wrap;html=1;" vertex="1" parent="1">
          <mxGeometry x="250" y="780" width="20" height="20" as="geometry" />
        </mxCell>
        <mxCell id="VSTp_4rP8tjsOcfSHApI-800" value="" style="rounded=0;whiteSpace=wrap;html=1;" vertex="1" parent="1">
          <mxGeometry x="230" y="780" width="20" height="20" as="geometry" />
        </mxCell>
        <mxCell id="VSTp_4rP8tjsOcfSHApI-801" value="" style="rounded=0;whiteSpace=wrap;html=1;" vertex="1" parent="1">
          <mxGeometry x="290" y="780" width="20" height="20" as="geometry" />
        </mxCell>
        <mxCell id="VSTp_4rP8tjsOcfSHApI-802" value="" style="rounded=0;whiteSpace=wrap;html=1;" vertex="1" parent="1">
          <mxGeometry x="270" y="780" width="20" height="20" as="geometry" />
        </mxCell>
        <mxCell id="VSTp_4rP8tjsOcfSHApI-803" value="" style="rounded=0;whiteSpace=wrap;html=1;" vertex="1" parent="1">
          <mxGeometry x="330" y="780" width="20" height="20" as="geometry" />
        </mxCell>
        <mxCell id="VSTp_4rP8tjsOcfSHApI-804" value="" style="rounded=0;whiteSpace=wrap;html=1;" vertex="1" parent="1">
          <mxGeometry x="310" y="780" width="20" height="20" as="geometry" />
        </mxCell>
        <mxCell id="VSTp_4rP8tjsOcfSHApI-805" value="" style="rounded=0;whiteSpace=wrap;html=1;" vertex="1" parent="1">
          <mxGeometry x="370" y="780" width="20" height="20" as="geometry" />
        </mxCell>
        <mxCell id="VSTp_4rP8tjsOcfSHApI-806" value="" style="rounded=0;whiteSpace=wrap;html=1;" vertex="1" parent="1">
          <mxGeometry x="350" y="780" width="20" height="20" as="geometry" />
        </mxCell>
        <mxCell id="VSTp_4rP8tjsOcfSHApI-807" value="" style="rounded=0;whiteSpace=wrap;html=1;" vertex="1" parent="1">
          <mxGeometry x="410" y="780" width="20" height="20" as="geometry" />
        </mxCell>
        <mxCell id="VSTp_4rP8tjsOcfSHApI-808" value="" style="rounded=0;whiteSpace=wrap;html=1;" vertex="1" parent="1">
          <mxGeometry x="390" y="780" width="20" height="20" as="geometry" />
        </mxCell>
        <mxCell id="VSTp_4rP8tjsOcfSHApI-809" value="" style="rounded=0;whiteSpace=wrap;html=1;" vertex="1" parent="1">
          <mxGeometry x="450" y="780" width="20" height="20" as="geometry" />
        </mxCell>
        <mxCell id="VSTp_4rP8tjsOcfSHApI-810" value="" style="rounded=0;whiteSpace=wrap;html=1;" vertex="1" parent="1">
          <mxGeometry x="430" y="780" width="20" height="20" as="geometry" />
        </mxCell>
        <mxCell id="VSTp_4rP8tjsOcfSHApI-811" value="" style="rounded=0;whiteSpace=wrap;html=1;" vertex="1" parent="1">
          <mxGeometry x="490" y="780" width="20" height="20" as="geometry" />
        </mxCell>
        <mxCell id="VSTp_4rP8tjsOcfSHApI-812" value="" style="rounded=0;whiteSpace=wrap;html=1;" vertex="1" parent="1">
          <mxGeometry x="470" y="780" width="20" height="20" as="geometry" />
        </mxCell>
        <mxCell id="VSTp_4rP8tjsOcfSHApI-813" value="" style="rounded=0;whiteSpace=wrap;html=1;" vertex="1" parent="1">
          <mxGeometry x="530" y="780" width="20" height="20" as="geometry" />
        </mxCell>
        <mxCell id="VSTp_4rP8tjsOcfSHApI-814" value="" style="rounded=0;whiteSpace=wrap;html=1;" vertex="1" parent="1">
          <mxGeometry x="510" y="780" width="20" height="20" as="geometry" />
        </mxCell>
        <mxCell id="VSTp_4rP8tjsOcfSHApI-815" value="" style="rounded=0;whiteSpace=wrap;html=1;" vertex="1" parent="1">
          <mxGeometry x="570" y="780" width="20" height="20" as="geometry" />
        </mxCell>
        <mxCell id="VSTp_4rP8tjsOcfSHApI-816" value="" style="rounded=0;whiteSpace=wrap;html=1;" vertex="1" parent="1">
          <mxGeometry x="550" y="780" width="20" height="20" as="geometry" />
        </mxCell>
        <mxCell id="VSTp_4rP8tjsOcfSHApI-817" value="" style="rounded=0;whiteSpace=wrap;html=1;" vertex="1" parent="1">
          <mxGeometry x="610" y="780" width="20" height="20" as="geometry" />
        </mxCell>
        <mxCell id="VSTp_4rP8tjsOcfSHApI-818" value="" style="rounded=0;whiteSpace=wrap;html=1;" vertex="1" parent="1">
          <mxGeometry x="590" y="780" width="20" height="20" as="geometry" />
        </mxCell>
        <mxCell id="VSTp_4rP8tjsOcfSHApI-819" value="" style="rounded=0;whiteSpace=wrap;html=1;" vertex="1" parent="1">
          <mxGeometry x="90" y="800" width="20" height="20" as="geometry" />
        </mxCell>
        <mxCell id="VSTp_4rP8tjsOcfSHApI-820" value="" style="rounded=0;whiteSpace=wrap;html=1;" vertex="1" parent="1">
          <mxGeometry x="70" y="800" width="20" height="20" as="geometry" />
        </mxCell>
        <mxCell id="VSTp_4rP8tjsOcfSHApI-821" value="" style="rounded=0;whiteSpace=wrap;html=1;" vertex="1" parent="1">
          <mxGeometry x="130" y="800" width="20" height="20" as="geometry" />
        </mxCell>
        <mxCell id="VSTp_4rP8tjsOcfSHApI-822" value="" style="rounded=0;whiteSpace=wrap;html=1;" vertex="1" parent="1">
          <mxGeometry x="110" y="800" width="20" height="20" as="geometry" />
        </mxCell>
        <mxCell id="VSTp_4rP8tjsOcfSHApI-823" value="" style="rounded=0;whiteSpace=wrap;html=1;" vertex="1" parent="1">
          <mxGeometry x="170" y="800" width="20" height="20" as="geometry" />
        </mxCell>
        <mxCell id="VSTp_4rP8tjsOcfSHApI-824" value="" style="rounded=0;whiteSpace=wrap;html=1;" vertex="1" parent="1">
          <mxGeometry x="150" y="800" width="20" height="20" as="geometry" />
        </mxCell>
        <mxCell id="VSTp_4rP8tjsOcfSHApI-825" value="" style="rounded=0;whiteSpace=wrap;html=1;" vertex="1" parent="1">
          <mxGeometry x="210" y="800" width="20" height="20" as="geometry" />
        </mxCell>
        <mxCell id="VSTp_4rP8tjsOcfSHApI-826" value="" style="rounded=0;whiteSpace=wrap;html=1;" vertex="1" parent="1">
          <mxGeometry x="190" y="800" width="20" height="20" as="geometry" />
        </mxCell>
        <mxCell id="VSTp_4rP8tjsOcfSHApI-827" value="" style="rounded=0;whiteSpace=wrap;html=1;" vertex="1" parent="1">
          <mxGeometry x="250" y="800" width="20" height="20" as="geometry" />
        </mxCell>
        <mxCell id="VSTp_4rP8tjsOcfSHApI-828" value="" style="rounded=0;whiteSpace=wrap;html=1;" vertex="1" parent="1">
          <mxGeometry x="230" y="800" width="20" height="20" as="geometry" />
        </mxCell>
        <mxCell id="VSTp_4rP8tjsOcfSHApI-829" value="" style="rounded=0;whiteSpace=wrap;html=1;" vertex="1" parent="1">
          <mxGeometry x="290" y="800" width="20" height="20" as="geometry" />
        </mxCell>
        <mxCell id="VSTp_4rP8tjsOcfSHApI-830" value="" style="rounded=0;whiteSpace=wrap;html=1;" vertex="1" parent="1">
          <mxGeometry x="270" y="800" width="20" height="20" as="geometry" />
        </mxCell>
        <mxCell id="VSTp_4rP8tjsOcfSHApI-831" value="" style="rounded=0;whiteSpace=wrap;html=1;" vertex="1" parent="1">
          <mxGeometry x="330" y="800" width="20" height="20" as="geometry" />
        </mxCell>
        <mxCell id="VSTp_4rP8tjsOcfSHApI-832" value="" style="rounded=0;whiteSpace=wrap;html=1;" vertex="1" parent="1">
          <mxGeometry x="310" y="800" width="20" height="20" as="geometry" />
        </mxCell>
        <mxCell id="VSTp_4rP8tjsOcfSHApI-833" value="" style="rounded=0;whiteSpace=wrap;html=1;" vertex="1" parent="1">
          <mxGeometry x="370" y="800" width="20" height="20" as="geometry" />
        </mxCell>
        <mxCell id="VSTp_4rP8tjsOcfSHApI-834" value="" style="rounded=0;whiteSpace=wrap;html=1;" vertex="1" parent="1">
          <mxGeometry x="350" y="800" width="20" height="20" as="geometry" />
        </mxCell>
        <mxCell id="VSTp_4rP8tjsOcfSHApI-835" value="" style="rounded=0;whiteSpace=wrap;html=1;" vertex="1" parent="1">
          <mxGeometry x="410" y="800" width="20" height="20" as="geometry" />
        </mxCell>
        <mxCell id="VSTp_4rP8tjsOcfSHApI-836" value="" style="rounded=0;whiteSpace=wrap;html=1;" vertex="1" parent="1">
          <mxGeometry x="390" y="800" width="20" height="20" as="geometry" />
        </mxCell>
        <mxCell id="VSTp_4rP8tjsOcfSHApI-837" value="" style="rounded=0;whiteSpace=wrap;html=1;" vertex="1" parent="1">
          <mxGeometry x="450" y="800" width="20" height="20" as="geometry" />
        </mxCell>
        <mxCell id="VSTp_4rP8tjsOcfSHApI-838" value="" style="rounded=0;whiteSpace=wrap;html=1;" vertex="1" parent="1">
          <mxGeometry x="430" y="800" width="20" height="20" as="geometry" />
        </mxCell>
        <mxCell id="VSTp_4rP8tjsOcfSHApI-839" value="" style="rounded=0;whiteSpace=wrap;html=1;" vertex="1" parent="1">
          <mxGeometry x="490" y="800" width="20" height="20" as="geometry" />
        </mxCell>
        <mxCell id="VSTp_4rP8tjsOcfSHApI-840" value="" style="rounded=0;whiteSpace=wrap;html=1;" vertex="1" parent="1">
          <mxGeometry x="470" y="800" width="20" height="20" as="geometry" />
        </mxCell>
        <mxCell id="VSTp_4rP8tjsOcfSHApI-841" value="" style="rounded=0;whiteSpace=wrap;html=1;" vertex="1" parent="1">
          <mxGeometry x="530" y="800" width="20" height="20" as="geometry" />
        </mxCell>
        <mxCell id="VSTp_4rP8tjsOcfSHApI-842" value="" style="rounded=0;whiteSpace=wrap;html=1;" vertex="1" parent="1">
          <mxGeometry x="510" y="800" width="20" height="20" as="geometry" />
        </mxCell>
        <mxCell id="VSTp_4rP8tjsOcfSHApI-843" value="" style="rounded=0;whiteSpace=wrap;html=1;" vertex="1" parent="1">
          <mxGeometry x="570" y="800" width="20" height="20" as="geometry" />
        </mxCell>
        <mxCell id="VSTp_4rP8tjsOcfSHApI-844" value="" style="rounded=0;whiteSpace=wrap;html=1;" vertex="1" parent="1">
          <mxGeometry x="550" y="800" width="20" height="20" as="geometry" />
        </mxCell>
        <mxCell id="VSTp_4rP8tjsOcfSHApI-845" value="" style="rounded=0;whiteSpace=wrap;html=1;" vertex="1" parent="1">
          <mxGeometry x="610" y="800" width="20" height="20" as="geometry" />
        </mxCell>
        <mxCell id="VSTp_4rP8tjsOcfSHApI-846" value="" style="rounded=0;whiteSpace=wrap;html=1;" vertex="1" parent="1">
          <mxGeometry x="590" y="800" width="20" height="20" as="geometry" />
        </mxCell>
        <mxCell id="VSTp_4rP8tjsOcfSHApI-1015" value="Player: 1. Remaining creatures: 4." style="text;html=1;strokeColor=none;fillColor=none;align=center;verticalAlign=middle;whiteSpace=wrap;rounded=0;" vertex="1" parent="1">
          <mxGeometry x="195" y="850" width="295" height="30" as="geometry" />
        </mxCell>
      </root>
    </mxGraphModel>
  </diagram>
</mxfile>
